<?xml version="1.0" standalone="no"?> 
<!DOCTYPE svg PUBLIC "-//W3C//DTD SVG 1.1//EN" "http://www.w3.org/Graphics/SVG/1.1/DTD/svg11.dtd" >
<svg xmlns="http://www.w3.org/2000/svg">
<defs>
  <font id="icon" horiz-adv-x="560">
    <font-face font-family="icon"
      units-per-em="560" ascent="560"
      descent="0" />
    <missing-glyph horiz-adv-x="0" />
    <glyph glyph-name="dropdown"
      unicode="&#xE900;"
      horiz-adv-x="560" d=" M267.713442 129.799266C273.63664 123.413337 283.735233 123.398082 289.677698 129.766087L550.96676 409.766087C556.618758 415.822825 556.290651 425.31463 550.233913 430.966628C544.177175 436.618625 534.68537 436.290519 529.033372 430.233781L278.739555 162.02653L29.9976281 430.200602C24.3639546 436.274388 14.8731837 436.631169 8.79939794 430.997496C2.72561223 425.3638220000001 2.36883079 415.8730510000001 8.0025043 409.799266L267.713442 129.799266z" />
    <glyph glyph-name="calendar"
      unicode="&#xE901;"
      horiz-adv-x="560" d=" M21 70.006029C21 41.8296820000001 43.8336386 19 72.0060289 19L489.993971 19C518.170318 19 541 41.833639 541 70.006029L541 487.9939711C541 516.1703182 518.166361 539 489.993971 539L72.0060289 539C43.8296818 539 21 516.1663614 21 487.9939711L21 70.006029zM390 509L390 460C390 451.715729 396.715729 445 405 445C413.284271 445 420 451.715729 420 460L420 509L489.993971 509C501.598983 509 511 499.6006117 511 487.9939711L511.201172 420L51 420L51 487.9939711C51 499.5989827 60.3993883 509 72.0060289 509L145 509L145 460C145 451.715729 151.715729 445 160 445C168.284271 445 175 451.715729 175 460L175 509L390 509zM511.188477 389L511 70.006029C511 58.401017 501.600612 49 489.993971 49L72.0060289 49C60.4010173 49 51 58.399388 51 70.006029L50.890625 390L511.188477 389zM265.238189 292.809828L256.667123 287.34926C249.680312 282.89801 240.407932 284.953488 235.956682 291.940299C231.505432 298.9271100000001 233.56091 308.19949 240.547721 312.6507400000001L271.940299 332.6507400000001C281.925831 339.012455 295 331.839859 295 320L295 136L310 136C318.284271 136 325 129.284271 325 121C325 112.715729 318.284271 106 310 106L250 106C241.715729 106 235 112.715729 235 121C235 129.284271 241.715729 136 250 136L265 136L265.238189 292.809828z" />
    <glyph glyph-name="collpseleft"
      unicode="&#xE902;"
      horiz-adv-x="560" d=" M85 40C85 31.715729 91.7157288 25 100 25C108.284271 25 115 31.715729 115 40L115 520C115 528.2842712 108.284271 535 100 535C91.7157288 535 85 528.2842712 85 520L85 40z M500 295C508.284271 295 515 288.284271 515 280C515 271.715729 508.284271 265 500 265L217.287931 265L317.470577 170.935238C323.509942 165.26468 323.80892 155.771913 318.1383630000001 149.732548C312.467805 143.693183 302.975038 143.394205 296.935673 149.064762L169.130985 269.064762C162.820922 274.989487 162.820922 285.010513 169.130985 290.9352380000001L296.935673 410.9352380000001C302.975038 416.605795 312.467805 416.306817 318.1383630000001 410.267452C323.80892 404.228087 323.509942 394.73532 317.470577 389.064762L217.62219 295L500 295z" />
    <glyph glyph-name="fullscreen"
      unicode="&#xE903;"
      horiz-adv-x="560" d=" M50 488.9914532C50 500.5980903 59.3996231 510 71.0060289 510L488.993971 510C500.598983 510 510 500.6006117 510 488.9939711L510 71.006029C510 59.404598 500.59658 50 488.999075 50L220.802734 50C212.518463 50 205.802734 43.284271 205.802734 35C205.802734 26.715729 212.518463 20 220.802734 20L488.999075 20C517.165963 20 540 42.836896 540 71.006029L540 488.9939711C540 517.1703182 517.166361 540 488.993971 540L71.0060289 540C42.8294469 540 20 517.1649995 20 488.9914532L20 219.453125C20 211.168854 26.7157288 204.453125 35 204.453125C43.2842712 204.453125 50 211.168854 50 219.453125L50 488.9914532z M56.3444101 77.256786C50.4865457 71.398921 50.4865457 61.901447 56.3444101 56.043582C62.2022745 50.185718 71.6997491 50.185718 77.5576135 56.043582L277.228878 255.714847L273.139237 118.597544C272.878451 110.317378 279.379442 103.393569 287.659608 103.132782C295.939773 102.871996 302.863583 109.372987 303.124369 117.653152L308.643117 292.877527C308.915592 301.528829 301.829657 308.6147640000001 293.178355 308.342289L117.95398 302.823541C109.673815 302.562755 103.172823 295.638945 103.43361 287.35878C103.694396 279.078614 110.618206 272.577623 118.898371 272.83841L256.252031 277.164407L56.3444101 77.256786z" />
    <glyph glyph-name="close"
      unicode="&#xE904;"
      horiz-adv-x="560" d=" M301.341093 280.346477L489.928647 91.286273C495.779175 85.421081 495.767288 75.923614 489.902097 70.073086C484.036906 64.222557 474.539438 64.234444 468.68891 70.099635L280.154389 259.106674L91.6198682 70.099635C85.7693399 64.234444 76.2718727 64.222557 70.4066814 70.073086C64.5414901 75.923614 64.5296035 85.421081 70.3801318 91.286273L258.967686 280.346477L70.3801318 469.4066814C64.5296035 475.2718727 64.5414901 484.7693399 70.4066814 490.6198682C76.2718727 496.4703965 85.7693399 496.4585099 91.6198682 490.5933186L280.154389 301.58628L468.68891 490.5933186C474.539438 496.4585099 484.036906 496.4703965 489.902097 490.6198682C495.767288 484.7693399 495.779175 475.2718727 489.928647 469.4066814L301.341093 280.346477L301.341093 280.346477z" />
    <glyph glyph-name="add"
      unicode="&#xE905;"
      horiz-adv-x="560" d=" M295.5 294.5L540.500962 294.5C548.785233 294.5 555.500962 287.784271 555.500962 279.5C555.500962 271.215729 548.785233 264.5 540.500962 264.5L295.5 264.5L295.5 19.499038C295.5 11.2147670000001 288.784271 4.499038 280.5 4.499038C272.215729 4.499038 265.5 11.2147670000001 265.5 19.499038L265.5 264.5L20.5 264.5C12.2157288 264.5 5.5 271.215729 5.5 279.5C5.5 287.784271 12.2157288 294.5 20.5 294.5L265.5 294.5L265.5 539.5C265.5 547.7842712 272.215729 554.5 280.5 554.5C288.784271 554.5 295.5 547.7842712 295.5 539.5L295.5 294.5L295.5 294.5z" />
    <glyph glyph-name="add-round"
      unicode="&#xE906;"
      horiz-adv-x="560" d=" M560 280C560 434.63973 434.63973 560 280 560C125.36027 560 0 434.63973 0 280C0 125.36027 125.36027 0 280 0C434.63973 0 560 125.36027 560 280zM30 280C30 418.071187 141.928813 530 280 530C418.071187 530 530 418.071187 530 280C530 141.928813 418.071187 30 280 30C141.928813 30 30 141.928813 30 280z M460.500962 294.5C468.785233 294.5 475.500962 287.784271 475.500962 279.5C475.500962 271.215729 468.785233 264.5 460.500962 264.5L295.5 264.5L295.5 99.499038C295.5 91.214767 288.784271 84.499038 280.5 84.499038C272.215729 84.499038 265.5 91.214767 265.5 99.499038L265.5 264.5L100.5 264.5C92.2157288 264.5 85.5 271.215729 85.5 279.5C85.5 287.784271 92.2157288 294.5 100.5 294.5L265.5 294.5L265.5 459.5C265.5 467.7842712 272.215729 474.5 280.5 474.5C288.784271 474.5 295.5 467.7842712 295.5 459.5L295.5 294.5L460.500962 294.5z" />
    <glyph glyph-name="search"
      unicode="&#xE907;"
      horiz-adv-x="560" d=" M398.769293 140.017504C356.458837 102.665276 300.876298 80 240 80C107.45166 80 0 187.45166 0 320C0 452.54834 107.45166 560 240 560C372.54834 560 480 452.54834 480 320C480 259.123702 457.334724 203.541163 419.9824960000001 161.230707L551.106602 30.106602C556.964466 24.248737 556.964466 14.751263 551.106602 8.893398C545.248737 3.035534 535.751263 3.035534 529.893398 8.893398L398.769293 140.017504L398.769293 140.017504zM240 110C355.979797 110 450 204.020203 450 320C450 435.979797 355.979797 530 240 530C124.020203 530 30 435.979797 30 320C30 204.020203 124.020203 110 240 110z" />
    <glyph glyph-name="search-round"
      unicode="&#xE908;"
      horiz-adv-x="560" d=" M560 280C560 434.63973 434.63973 560 280 560C125.36027 560 0 434.63973 0 280C0 125.36027 125.36027 0 280 0C434.63973 0 560 125.36027 560 280zM30 280C30 418.071187 141.928813 530 280 530C418.071187 530 530 418.071187 530 280C530 141.928813 418.071187 30 280 30C141.928813 30 30 141.928813 30 280zM334.138454 204.856955C313.891194 189.269285 288.528076 180 261 180C194.72583 180 141 233.72583 141 300C141 366.2741700000001 194.72583 420 261 420C327.2741700000001 420 381 366.2741700000001 381 300C381 272.067467 371.456335 246.363976 355.451895 225.972417L411.030572 171.182091C416.9301270000001 165.366217 416.997965 155.868984 411.182091 149.969428C405.366217 144.069873 395.868984 144.002035 389.969428 149.817909L334.138454 204.856955L334.138454 204.856955zM260 210C309.705627 210 350 250.294373 350 300C350 349.705627 309.705627 390 260 390C210.294373 390 170 349.705627 170 300C170 250.294373 210.294373 210 260 210z" />
    <glyph glyph-name="notification"
      unicode="&#xE909;"
      horiz-adv-x="560" d=" M125 201L135.212638 215.215525C133.411181 214.564733 132.61297 214.255677 131.731559 213.897479C129.299759 212.909215 126.626314 211.708208 123.768912 210.281733C115.663132 206.235158 107.569035 201.142501 99.9602996 194.871969C77.6765301 176.507409 64 151.905682 64 121C64 112.715729 70.7157288 106 79 106L483 106C491.284271 106 498 112.715729 498 121C498 151.890487 483.857091 176.487337 460.874122 194.885611C453.054548 201.145319 444.740791 206.239892 436.418258 210.298253C433.487695 211.7273 430.747359 212.931677 428.256746 213.923539C427.35585 214.282313 426.540877 214.591794 425.81929 214.853357C425.3400920000001 215.027058 435 201 435 201L435 360C435 420.610251 399.8876200000001 474.8773794 346.026368 500.270326L354.538018 488.3596362C350.337815 526.1475189 318.305607 555 280 555C241.694393 555 209.662185 526.1475189 205.461982 488.3596362L213.973632 500.270326C160.11238 474.8773794 125 420.610251 125 360L125 201zM226.766709 473.1347926C231.480234 475.3569892 234.702681 479.8662866 235.278359 485.0454825C237.794398 507.6814782 257.021532 525 280 525C302.978468 525 322.205602 507.6814782 324.721641 485.0454825C325.297319 479.8662866 328.519766 475.3569892 333.233291 473.1347926C376.685557 452.649174 405 408.88844 405 360L405 201C405 194.532906 409.144854 188.793891 415.284006 186.760639C416.027726 186.492532 416.550889 186.293863 417.157316 186.05236C418.973344 185.329144 421.031836 184.424437 423.269242 183.333399C429.712334 180.191519 436.164202 176.23789 442.125878 171.465463C458.517909 158.343351 468 141.852432 468 121L483 136L79 136L94 121C94 142.11922 103.19847 158.665686 119.0397 171.720804C124.774715 176.44716 130.977493 180.349834 137.168588 183.440557C139.315092 184.512137 141.288132 185.398497 143.026253 186.104856C143.604315 186.339775 144.101758 186.532378 144.510917 186.683464C150.889994 188.839658 155 194.560599 155 201L155 360C155 408.88844 183.314443 452.649174 226.766709 473.1347926z M280 6C312.853491 6 342.847566 22.82374 360.169884 50.012694C364.621211 56.999456 362.565834 66.271859 355.579073 70.723186C348.592311 75.174512 339.319908 73.119136 334.868581 66.132374C322.998382 47.5010170000001 302.493884 36 280 36C257.225427 36 236.498839 47.792653 224.710244 66.802405C220.344251 73.842806 211.097541 76.010843 204.05714 71.64485C197.016738 67.278857 194.848701 58.032147 199.214694 50.991746C216.418943 23.248956 246.735446 6 280 6z" />
    <glyph glyph-name="user-around"
      unicode="&#xE90A;"
      horiz-adv-x="560" d=" M560 280C560 434.63973 434.63973 560 280 560C125.36027 560 0 434.63973 0 280C0 125.36027 125.36027 0 280 0C434.63973 0 560 125.36027 560 280zM30 280C30 418.071187 141.928813 530 280 530C418.071187 530 530 418.071187 530 280C530 141.928813 418.071187 30 280 30C141.928813 30 30 141.928813 30 280z M126.960893 63.070072C131.471729 64.592766 135.735738 66.066835 140.186594 67.655944C152.428949 72.026887 164.100174 76.565709 175.13146 81.382743C191.197573 88.398338 204.78556 95.520871 215.36358 102.847545C229.77167 112.827049 238.810232 123.155099 240.853993 135.466464C241.118819 137.061746 241.253906 138.669069 241.253906 140.28125C241.253906 149.847978 238.93442 159.911549 234.685739 170.886879C231.558777 178.964548 227.585975 187.113294 222.156491 197.064421C220.619954 199.880576 213.065304 213.339525 211.353647 216.553544C209.844615 219.387088 208.719542 221.659891 207.910284 223.520313C207.197754 225.158364 206.79583 226.332248 206.6833 226.898801C205.548288 232.613249 202.686077 237.41555 198.532673 241.508853C195.757392 244.243973 192.712928 246.4413 188.440962 249.074859C187.415092 249.707282 182.69354 252.527537 181.474331 253.286246C172.670799 258.764654 169.902344 262.379904 169.902344 269.587891C169.902344 277.10105 171.311934 279.4423300000001 177.327924 284.2621020000001C177.765436 284.612619 179.360094 285.87568 179.476666 285.968438C184.457013 289.931414 187.356676 292.693414 190.159404 296.862613C194.018942 302.603868 195.996094 309.266169 195.996094 316.9570310000001C195.996094 317.28391 195.99588 317.512527 195.995069 318.193031C195.971461 338.019558 197.341989 352.203004 202.606009 367.807752C207.496573 382.305421 215.115519 394.009203 225.976567 402.463718C239.053506 412.643138 256.968205 418.2539060000001 280.914062 418.2539060000001C320.359899 418.2539060000001 344.188997 403.049174 357.593122 376.2483220000001C362.782671 365.872089 366.175226 354.110988 368.060748 341.5037660000001C369.40191 332.536318 369.832031 324.722189 369.832031 316.103516C369.832031 308.7152700000001 371.678545 302.300929 375.3110480000001 296.757179C377.975975 292.690098 380.764281 289.980182 385.44757 286.198849C385.527645 286.134195 387.2538170000001 284.748199 387.716615 284.37093C393.215559 279.888242 394.556641 277.5581670000001 394.556641 269.828125C394.556641 261.450914 391.318156 256.528554 382.508773 249.73917C381.491896 248.955463 375.179548 244.304967 373.343706 242.850364C366.507768 237.434008 362.204463 232.468257 359.996203 225.439064C359.648937 224.333671 357.886063 221.290127 354.588607 216.456104C353.735035 215.20478 344.990404 202.764343 342.139997 198.515549C331.033485 181.960274 324.078487 168.325818 320.991863 154.185322C319.965814 149.484767 319.429688 144.852023 319.429688 140.28125C319.429688 137.840064 319.7357830000001 135.414709 320.326836 133.02588C323.121654 121.730208 331.766144 112.036501 345.05751 102.618967C355.010627 95.566735 367.632727 88.70391 382.3782770000001 81.99422C394.651336 76.409593 407.724611 71.232825 420.788181 66.574173C425.354201 64.945867 429.598206 63.496655 433.416169 62.242474C435.731671 61.481844 437.409336 60.94961 438.344426 60.662158C446.262997 58.227948 454.655585 62.673902 457.089795 70.592473C459.524005 78.511044 455.078052 86.903632 447.15948 89.337842C446.990129 89.389901 446.622976 89.504514 446.071359 89.679513C445.127414 89.978977 444.025435 90.33456 442.778793 90.744075C439.191913 91.922346 435.184809 93.290663 430.865017 94.831161C418.540556 99.226236 406.225801 104.102645 394.803363 109.300213C381.638357 115.290705 370.574586 121.306243 362.401484 127.097256C358.14565 130.112706 354.810175 132.976345 352.500103 135.5668C350.640136 137.652519 349.684504 139.278191 349.448678 140.231317C349.429688 142.617581 349.719086 145.118314 350.301721 147.78749C352.3949 157.376798 357.878132 168.126031 367.053017 181.802039C369.678516 185.715586 378.332125 198.026532 379.371772 199.55064C384.32387 206.810344 387.089464 211.585051 388.617079 216.447655C389.403766 217.176993 390.428951 218.112083 391.974459 219.336644C393.30266 220.389025 399.39226 224.875416 400.822009 225.977322C407.572712 231.180083 412.4724540000001 235.971953 416.496776 242.088752C421.758934 250.08701 424.556641 259.295619 424.556641 269.828125C424.556641 279.372972 422.602423 287.370139 418.693907 294.161027C415.601158 299.534553 412.048301 303.241034 406.672057 307.623698C406.106816 308.084478 404.297464 309.537261 404.293691 309.540307C400.12621 312.905173 399.832031 313.354133 399.832031 316.103516C399.832031 326.081845 399.326017 335.27474 397.730756 345.9411800000001C395.408596 361.467901 391.157514 376.205295 384.424456 389.667693C366.011097 426.484246 331.893341 448.2539060000001 280.914062 448.2539060000001C250.555278 448.2539060000001 226.13674 440.606177 207.548799 426.136853C191.675257 413.780487 180.836881 397.1312030000001 174.179815 377.396888C170.432338 366.287805 168.14945 354.637541 166.975393 342.487344C166.168103 334.132789 165.983591 327.814519 165.995091 318.157308C165.995885 317.489861 165.996094 317.267356 165.996094 316.9570310000001C165.996094 313.899472 165.534831 313.21332 160.797102 309.443401C160.738305 309.396615 159.085858 308.087783 158.570514 307.67491C152.948872 303.171074 149.342631 299.529284 146.128789 294.191202C141.988236 287.313887 139.902344 279.217727 139.902344 269.587891C139.902344 258.948826 142.996068 249.825889 148.820219 242.220288C153.195839 236.506284 158.369831 232.329585 165.623911 227.815397C167.136542 226.874092 171.930971 224.010306 172.697853 223.537543C175.202241 221.993651 176.671132 220.933486 177.47463 220.141615C178.301269 215.802312 180.693584 210.302561 184.874557 202.451848C186.775935 198.881587 194.434381 185.237721 195.8214 182.6956C200.681082 173.788805 204.137166 166.699916 206.708839 160.056687C209.729718 152.253056 211.253906 145.640048 211.253906 140.28125C210.332608 138.414063 209.608657 137.398428 208.613074 136.26081C206.297469 133.614848 202.813667 130.648431 198.281876 127.509568C189.559669 121.46829 177.564506 115.18068 163.126045 108.875834C152.793431 104.363889 141.74036 100.065461 130.099217 95.909171C125.827024 94.38385 121.722846 92.965035 117.36591 91.494292C115.562539 90.88554 110.062989 89.048649 109.157739 88.739888C101.316997 86.065581 97.1287741 77.54145 99.803081 69.700708C102.477388 61.859966 111.001519 57.671743 118.842261 60.34605C119.638568 60.617653 125.07467 62.433351 126.960893 63.070072z" />
    <glyph glyph-name="folder"
      unicode="&#xE90B;"
      horiz-adv-x="560" d=" M0 68.000761C0 52.52915 12.5346187 40 27.9986968 40L532.001303 40C547.467287 40 560 52.539351 560 68.002555L560 431.997445C560 447.466911 547.462701 460 531.997478 460L188.41655 459.867722L134.142136 514.1421356C130.391408 517.8928632 125.30433 520 120 520L27.9933542 520C12.5390997 520 0 507.4598903 0 491.9992391L0 68.000761zM115.99707 490L169.857864 435.857864C173.608592 432.107137 178.69567 430 184 430L530 430L530 370L30 370L30 490L115.99707 490zM30 340L530 340L530 70L30 70L30 340z" />
    <glyph glyph-name="contact"
      unicode="&#xE90C;"
      horiz-adv-x="560" d=" M505.555594 475.975437C503.820943 475.9439708 502.729833 476.2846232 502.251016 476.7450051C502.314112 476.6843379 502.43501 476.5318079 502.610981 476.2382619C502.943077 475.6842734 503.285823 474.9131945 503.612019 473.8855361C504.596688 470.7834055 505.140351 466.3044509 505.003891 460.3142786C505.001297 460.200423 505 79.988281 505 79.988281C505 75.824938 503.954359 73.799909 502.076582 72.350565C501.392459 71.822531 500.611398 71.401633 499.848389 71.108962C499.612312 71.018409 499.419948 70.956114 499.290469 70.920813C499.323716 70.929877 499.450892 70.958907 499.691443 71.004477C491.551939 69.462523 486.203568 61.61415 487.745523 53.474646C489.287477 45.335142 497.13585 39.986771 505.275354 41.528726C506.657725 41.790603 508.469531 42.284575 510.592346 43.098832C513.93479 44.380907 517.259183 46.172357 520.406816 48.601827C529.476915 55.602496 535 66.298719 535 79.988281L535 459.972656C535.404365 477.5521435 531.323078 490.4099513 523.043817 498.3704402C517.161844 504.0259416 510.608235 506.072026 505.011491 505.9705024C504.867865 505.9674619 504.867865 505.9674619 504.736047 505.9631316C496.457037 505.6679573 489.984858 498.7172069 490.280032 490.4381959C490.575207 482.159185 497.525957 475.6870066 505.804968 475.9821809C505.677546 475.9780073 505.677546 475.9780073 505.555594 475.975437zM41 487.9939711C41 516.1633488 63.8350437 539 92.0030185 539L429.996982 539C458.16799 539 481 516.1700374 481 487.9939711L481 70.006029C481 41.836651 458.164956 19 429.996982 19L92.0030185 19C63.8320104 19 41 41.829963 41 70.006029L41 487.9939711zM451 91.845519L451 487.9939711C451 499.6008925 441.600049 509 429.996982 509L92.0030185 509C80.4040589 509 71 499.595279 71 487.9939711L71 96.494232C71.1809295 96.592773 71.364548 96.692804 71.550927 96.794362C72.640319 97.387973 77.1696215 99.858777 78.3284498 100.49034C81.1585196 102.032734 83.5151667 103.313622 85.8507946 104.577602C91.8492014 107.82378 97.2149807 110.689459 102.430686 113.421302C105.86803 115.221689 109.180615 116.932219 112.390901 118.562199C122.008803 123.44556 130.598034 127.55075 138.219028 130.853572C157.102969 139.037583 170.757092 145.846855 180.878133 152.518791C186.388308 156.151178 190.470504 159.532869 192.984704 162.481404C194.009733 163.68351 194.685708 164.710679 195.253906 166.027344C195.253906 171.386142 193.729718 177.999149 190.708839 185.802781C188.137166 192.446009 184.681082 199.534898 179.8214 208.441693C178.434381 210.983814 170.775935 224.627681 168.874557 228.197942C164.693584 236.048655 162.301269 241.548406 161.47463 245.887709C160.671132 246.67958 159.202241 247.7397450000001 156.697853 249.283636C155.930971 249.7564 151.136542 252.620185 149.623911 253.56149C142.369831 258.075679 137.195839 262.252378 132.820219 267.966381C126.996068 275.571983 123.902344 284.69492 123.902344 295.333984C123.902344 304.963821 125.988236 313.059981 130.128789 319.937296C133.342631 325.275378 136.948872 328.917168 142.570514 333.4210040000001C143.085858 333.8338770000001 144.738305 335.142709 144.797102 335.189495C149.534831 338.9594140000001 149.996094 339.6455660000001 149.995091 343.9034020000001C149.983591 353.560613 150.168103 359.878882 150.975393 368.233438C152.14945 380.3836350000001 154.432338 392.033899 158.179815 403.142982C164.836881 422.877297 175.675257 439.526581 191.548799 451.882947C210.13674 466.3522712 234.555278 474 264.914063 474C315.893341 474 350.011097 452.23034 368.424456 415.413787C375.157514 401.951388 379.408596 387.213995 381.730756 371.687274C383.326017 361.0208330000001 383.832031 351.827939 383.832031 341.849609C383.832031 339.100227 384.12621 338.651266 388.293691 335.286401C388.297464 335.2833550000001 390.106816 333.830571 390.672057 333.369792C396.048301 328.987128 399.601158 325.280647 402.693907 319.907121C406.602423 313.116233 408.556641 305.119066 408.556641 295.5742190000001C408.556641 285.041713 405.758934 275.833104 400.496776 267.8348460000001C396.4724540000001 261.718046 391.572712 256.926177 384.822009 251.723416C383.39226 250.621509 377.30266 246.135118 375.974459 245.082737C374.428951 243.858176 373.403766 242.923086 372.617079 242.1937480000001C371.089464 237.331145 368.32387 232.556437 363.371772 225.296734C362.332125 223.772626 353.678516 211.46168 351.053017 207.548133C341.878132 193.872124 336.3949 183.122892 334.301721 173.533584C333.719086 170.864408 333.429688 168.363675 333.429688 166.027344C333.429688 165.416968 333.826177 164.319001 335.028848 162.593101C336.816644 160.027512 339.836536 157.028027 344.08163 153.739205C353.033615 146.80379 366.639094 139.161393 384.944548 130.708767C390.128587 128.315013 395.567706 125.576112 401.237689 122.522266C407.959041 118.902153 414.945952 114.871536 422.130567 110.500044C431.928133 104.538698 441.667004 98.209586 451 91.845519L451 91.845519zM447.173974 57.915266C446.87574 58.129901 446.5635020000001 58.354057 446.237572 58.587443C443.499345 60.548178 440.385557 62.738115 436.958553 65.099261C427.165019 71.846834 416.854176 78.593638 406.53672 84.871311C399.779352 88.982844 393.24217 92.754022 387.011883 96.109646C381.858343 98.885337 376.962441 101.350698 372.367952 103.472224C352.181694 112.79332 336.786965 121.440766 325.708409 130.023708C311.508028 141.025237 303.429688 152.618114 303.429688 166.027344C303.429688 170.598117 303.965814 175.230861 304.991863 179.931416C308.078487 194.071912 315.033485 207.706368 326.139997 224.261643C328.990404 228.510437 337.735035 240.950874 338.588607 242.202198C341.886063 247.036221 343.648937 250.079765 343.996203 251.185158C346.204463 258.214351 350.507768 263.180102 357.343706 268.596457C359.179548 270.051061 365.491896 274.701557 366.508773 275.485264C375.318156 282.274648 378.556641 287.197007 378.556641 295.5742190000001C378.556641 303.304261 377.215559 305.634336 371.716615 310.117024C371.2538170000001 310.494293 369.527645 311.880288 369.44757 311.944942C364.764281 315.726275 361.975975 318.436192 359.3110480000001 322.5032730000001C355.678545 328.047022 353.832031 334.461363 353.832031 341.849609C353.832031 350.4682830000001 353.40191 358.282412 352.060748 367.24986C350.175226 379.857081 346.782671 391.618182 341.593122 401.994416C328.188997 428.795267 304.359899 444 264.914063 444C240.968205 444 223.053506 438.389232 209.976567 428.209811C199.115519 419.7552970000001 191.496573 408.051515 186.606009 393.553846C181.341989 377.949097 179.971461 363.765652 179.996094 342.703125C179.996094 335.012263 178.018942 328.349962 174.159404 322.608706C171.356676 318.439508 168.457013 315.677507 163.476666 311.714532C163.360094 311.621773 161.765436 310.358713 161.327924 310.008196C155.311934 305.188424 153.902344 302.847144 153.902344 295.333984C153.902344 288.125998 156.670799 284.510747 165.474331 279.03234C166.69354 278.273631 171.415092 275.453376 172.440962 274.820952C176.712928 272.187393 179.757392 269.990067 182.532673 267.254946C186.686077 263.161644 189.548288 258.359343 190.6833 252.644895C190.79583 252.078342 191.197754 250.904457 191.910284 249.266407C192.719542 247.405985 193.844615 245.133182 195.353647 242.299638C197.065304 239.085618 204.619954 225.62667 206.156491 222.810515C211.585975 212.859388 215.558777 204.710642 218.685739 196.632972C222.93442 185.657643 225.253906 175.594072 225.253906 166.027344C225.253906 157.689215 221.799968 150.038082 215.812499 143.016262C211.218056 137.628117 205.06628 132.531985 197.389692 127.471467C185.459903 119.607178 170.511564 112.152485 150.148442 103.327419C143.155708 100.296875 135.089879 96.441843 125.972614 91.812674C122.880149 90.242517 119.67938 88.589725 116.350124 86.845952C111.267478 84.183802 106.016972 81.379686 100.129225 78.193394C97.8231041 76.945383 95.4910167 75.677843 92.6848245 74.148463C91.5333176 73.520889 87.0026497 71.049341 85.9052613 70.451372C79.1869374 66.790548 75.0365288 64.553199 72.1574459 63.108323C75.0096582 54.89273 82.8157209 49 92.0030185 49L429.996982 49C437.095578 49 443.37208 52.522515 447.173974 57.915266z" />
    <glyph glyph-name="clock"
      unicode="&#xE90D;"
      horiz-adv-x="560" d=" M560 280C560 434.63973 434.63973 560 280 560C125.36027 560 0 434.63973 0 280C0 125.36027 125.36027 0 280 0C434.63973 0 560 125.36027 560 280zM30 280C30 418.071187 141.928813 530 280 530C418.071187 530 530 418.071187 530 280C530 141.928813 418.071187 30 280 30C141.928813 30 30 141.928813 30 280z M245 260C245 251.715729 251.715729 245 260 245L420.060547 245C428.344818 245 435.060547 251.715729 435.060547 260C435.060547 268.284271 428.344818 275 420.060547 275L260 275L275 260L275 470C275 478.2842712 268.284271 485 260 485C251.715729 485 245 478.2842712 245 470L245 260z" />
    <glyph glyph-name="flag"
      unicode="&#xE90E;"
      horiz-adv-x="560" d=" M115 241.689474C117.683034 241.184599 272.949972 240.724309 299.838867 241.689474C332.153003 242.849376 332.402003 226.303351 365.863281 222.348384C375.239822 221.24012 455.228729 222.437047 455.726649 222.348384C465.494676 220.546245 474 227.624135 474 237L474 478C474 485.2597413 468.801049 491.4775106 461.656021 492.7629791C461.146722 492.8546076 375.728359 491.6125584 365.863281 492.7629791C331.103324 496.8165279 332.87904 514.7985426 299.838867 513.6864488C270.720404 512.6424923 115.81552 513.4706168 115 513.6864488L115 540C115 548.2842712 108.284271 555 100 555C91.7157288 555 85 548.2842712 85 540L85 20C85 11.715729 91.7157288 5 100 5C108.284271 5 115 11.715729 115 20L115 241.689474zM115 485C115 485 262.099609 485 296.9179690000001 485C331.736328 485 332.408203 463.4453125 363.837891 463.4453125C395.267578 463.4453125 444.197266 463.4453125 444.197266 463.4453125L445.447266 254.498047L368.135742 254.498047C350.213867 254.498047 333.395508 274.119141 296.9179690000001 274C243.8873 273.826795 115 274 115 274L115 485z" />
    <glyph glyph-name="doc"
      unicode="&#xE90F;"
      horiz-adv-x="560" d=" M60 499.9929722C60 521.533552 77.4581876 539 98.9940374 539L360.751953 539C364.73212 539 368.549107 537.4181263 371.3624710000001 534.6026843L495.610518 410.262841C498.421168 407.450114 500 403.636484 500 399.6601560000001L500 57.991984C500 36.454668 482.538981 19 460.996452 19L99.0035485 19C77.4618339 19 60 36.464036 60 58.007028L60 499.9929722zM90 58.007028C90 53.031732 94.0312233 49 99.0035485 49L460.996452 49C465.972881 49 470 53.025654 470 57.991984L470 385L360 385C351.715729 385 345 391.715729 345 400L345 509L98.9940374 509C94.0299077 509 90 504.9681855 90 499.9929722L90 58.007028zM446.205279 414.978439L375.007161 485.9155331L375.039062 414.890137L446.205279 414.978439zM160 125C151.715729 125 145 131.715729 145 140C145 148.284271 151.715729 155 160 155L401 155C409.284271 155 416 148.284271 416 140C416 131.715729 409.284271 125 401 125L160 125zM160 215C151.715729 215 145 221.715729 145 230C145 238.284271 151.715729 245 160 245L401 245C409.284271 245 416 238.284271 416 230C416 221.715729 409.284271 215 401 215L160 215zM160 305C151.715729 305 145 311.715729 145 320C145 328.284271 151.715729 335 160 335L320 335C328.284271 335 335 328.284271 335 320C335 311.715729 328.284271 305 320 305L160 305z" />
    <glyph glyph-name="add-fill"
      unicode="&#xE910;"
      horiz-adv-x="560" d=" M560 280C560 434.63973 434.63973 560 280 560C125.36027 560 0 434.63973 0 280C0 125.36027 125.36027 0 280 0C434.63973 0 560 125.36027 560 280zM460.500962 294.5C468.785233 294.5 475.500962 287.784271 475.500962 279.5C475.500962 271.215729 468.785233 264.5 460.500962 264.5L295.5 264.5L295.5 99.499038C295.5 91.214767 288.784271 84.499038 280.5 84.499038C272.215729 84.499038 265.5 91.214767 265.5 99.499038L265.5 264.5L100.5 264.5C92.2157288 264.5 85.5 271.215729 85.5 279.5C85.5 287.784271 92.2157288 294.5 100.5 294.5L265.5 294.5L265.5 459.5C265.5 467.7842712 272.215729 474.5 280.5 474.5C288.784271 474.5 295.5 467.7842712 295.5 459.5L295.5 294.5L460.500962 294.5z" />
    <glyph glyph-name="search-fill"
      unicode="&#xE911;"
      horiz-adv-x="560" d=" M560 280C560 434.63973 434.63973 560 280 560C125.36027 560 0 434.63973 0 280C0 125.36027 125.36027 0 280 0C434.63973 0 560 125.36027 560 280zM334.138454 204.856955C313.891194 189.269285 288.528076 180 261 180C194.72583 180 141 233.72583 141 300C141 366.2741700000001 194.72583 420 261 420C327.2741700000001 420 381 366.2741700000001 381 300C381 272.067467 371.456335 246.363976 355.451895 225.972417L411.030572 171.182091C416.9301270000001 165.366217 416.997965 155.868984 411.182091 149.969428C405.366217 144.069873 395.868984 144.002035 389.969428 149.817909L334.138454 204.856955L334.138454 204.856955zM260 210C309.705627 210 350 250.294373 350 300C350 349.705627 309.705627 390 260 390C210.294373 390 170 349.705627 170 300C170 250.294373 210.294373 210 260 210z" />
    <glyph glyph-name="list"
      unicode="&#xE912;"
      horiz-adv-x="560" d=" M72 435C85.8071187 435 97 446.192881 97 460C97 473.8071187 85.8071187 485 72 485C58.1928813 485 47 473.8071187 47 460C47 446.192881 58.1928813 435 72 435zM72 255C85.8071187 255 97 266.192881 97 280C97 293.807119 85.8071187 305 72 305C58.1928813 305 47 293.807119 47 280C47 266.192881 58.1928813 255 72 255zM72 75C85.8071187 75 97 86.192881 97 100C97 113.807119 85.8071187 125 72 125C58.1928813 125 47 113.807119 47 100C47 86.192881 58.1928813 75 72 75zM500 445C508.284271 445 515 451.715729 515 460C515 468.2842712 508.284271 475 500 475L160 475C151.715729 475 145 468.2842712 145 460C145 451.715729 151.715729 445 160 445L500 445zM500 265C508.284271 265 515 271.715729 515 280C515 288.284271 508.284271 295 500 295L160 295C151.715729 295 145 288.284271 145 280C145 271.715729 151.715729 265 160 265L500 265zM500 85C508.284271 85 515 91.715729 515 100C515 108.284271 508.284271 115 500 115L160 115C151.715729 115 145 108.284271 145 100C145 91.715729 151.715729 85 160 85L500 85z" />
    <glyph glyph-name="comment"
      unicode="&#xE913;"
      horiz-adv-x="560" d=" M280 295C293.807119 295 305 306.192881 305 320C305 333.807119 293.807119 345 280 345C266.192881 345 255 333.807119 255 320C255 306.192881 266.192881 295 280 295zM380 295C393.807119 295 405 306.192881 405 320C405 333.807119 393.807119 345 380 345C366.192881 345 355 333.807119 355 320C355 306.192881 366.192881 295 380 295zM180 295C193.807119 295 205 306.192881 205 320C205 333.807119 193.807119 345 180 345C166.192881 345 155 333.807119 155 320C155 306.192881 166.192881 295 180 295z M135.5 145C135.5 153.284271 128.784271 160 120.5 160L71.9957912 160C48.7997564 160 30 178.799569 30 201.999954L30 443.000046C30 466.1968047 48.8034065 485 72.0023192 485L487.997681 485C511.197706 485 530 466.2000468 530 443.000046L530 201.999954C530 178.805697 511.192792 160 487.998279 160L280.519531 160C277.576678 160 274.698833 159.13435 272.24433 157.510837L135.5 67.062299L135.5 145zM105.5 39.15625C105.5 27.200437 118.803386 20.049629 128.775202 26.645413L285.0315 130L487.998279 130C527.760795 130 560 162.236615 560 201.999954L560 443.000046C560 482.7694256 527.765412 515 487.997681 515L72.0023192 515C32.2349395 515 0 482.7654226 0 443.000046L0 201.999954C0 162.230959 32.231281 130 71.9957912 130L105.5 130L105.5 39.15625z" />
    <glyph glyph-name="checkbox"
      unicode="&#xE914;"
      horiz-adv-x="560" d=" M40 99.993828C40 66.855563 66.858471 40 99.9938281 40L460.006172 40C493.144437 40 520 66.858471 520 99.993828L520 460.0061719C520 493.1444375 493.141529 520 460.006172 520L99.9938281 520C66.8555625 520 40 493.141529 40 460.0061719L40 99.993828zM95.9935195 490L464.00648 490C475.603664 490 490 475.6046816 490 464.0064805L490 95.99352C490 84.396336 475.604682 70 464.00648 70L95.9935195 70C84.3963359 70 70 84.395318 70 95.99352L70 464.0064805C70 475.6036641 84.3953184 490 95.9935195 490z" />
    <glyph glyph-name="checked"
      unicode="&#xE915;"
      horiz-adv-x="560" d=" M520 396.822244L520 99.993828C520 66.858471 493.144437 40 460.006172 40L99.9938281 40C66.858471 40 40 66.855563 40 99.993828L40 460.0061719C40 493.141529 66.8555625 520 99.9938281 520L460.006172 520C489.41254 520 513.875303 498.848863 519.008862 470.9260915L257.441856 164.157248L144.516776 308.133802C135.995744 318.997897 120.280994 320.897325 109.4169 312.3762930000001C98.5528053 303.855262 96.6533774 288.140512 105.174409 277.276418L237.020526 109.17603C246.791919 96.717757 265.536426 96.365394 275.769137 108.447626L520 396.822244z" />
    <glyph glyph-name="edit"
      unicode="&#xE916;"
      horiz-adv-x="560" d=" M484 20C492.284271 20 499 26.715729 499 35C499 43.284271 492.284271 50 484 50L261 50C252.715729 50 246 43.284271 246 35C246 26.715729 252.715729 20 261 20L484 20z M327.085692 552.81677878L77.8647451 209.793573C76.3935063 207.768587 75.4523935 205.407625 75.1271628 202.925823L51.9826316 26.31231C50.4788195 14.836877 61.9868744 6.053617 72.6590635 10.5314959999999L241.426654 81.343664C243.95605 82.404957 246.146004 84.139516 247.758314 86.35867L496.979261 429.3818760000001C501.848633 436.083992 500.362901 445.464537 493.660785 450.33391L348.037726 556.13525492C341.33561 561.00462738 331.955065 559.51889501 327.085692 552.81677878zM476.027227 426.0634L472.708751 447.0154330000001L223.487804 103.992228L229.819464 109.007234L132.46875 67.980469L91.7387601 97.140541L104.872837 199.027765L102.135255 192.160016L351.356202 535.1832212L330.4041680000001 531.8647451L476.027227 426.0634z" />
    <glyph glyph-name="delete"
      unicode="&#xE917;"
      horiz-adv-x="560" d=" M20 475C11.7157288 475 5 468.2842712 5 460C5 451.715729 11.7157288 445 20 445L86.5450183 445L119.559465 31.813709C120.519825 24.328812 126.891244 18.722656 134.4375 18.722656L426.8085940000001 18.722656C434.373177 18.722656 440.754056 24.355318 441.692675 31.861444L473.354489 445L540 445C548.284271 445 555 451.715729 555 460C555 468.2842712 548.284271 475 540 475L361.772419 475L341.580776 529.2336637C339.394628 535.1055403 333.789072 539 327.523438 539L229.566406 539C223.087621 539 217.341001 534.8403933 215.317096 528.6858454L197.662658 475L20 475zM442.100586 444.998047L412.422852 48.722656L148.570312 48.722656L117.860352 444.998047L442.100586 444.998047zM240.442383 509L317.107422 509L329.951172 474.8736201L229.207221 474.8736201L240.442383 509zM210.543232 158.361985C211.17174 150.10159 218.37762 143.914723 226.638015 144.543232C234.89841 145.17174 241.085277 152.37762 240.456768 160.638015L231.456768 344.638015C230.82826 352.89841 223.62238 359.085277 215.361985 358.456768C207.10159 357.82826 200.914723 350.62238 201.543232 342.361985L210.543232 158.361985zM319.543232 160.638015C318.914723 152.37762 325.10159 145.17174 333.361985 144.543232C341.62238 143.914723 348.82826 150.10159 349.456768 158.361985L358.456768 342.361985C359.085277 350.62238 352.89841 357.82826 344.638015 358.456768C336.37762 359.085277 329.17174 352.89841 328.543232 344.638015L319.543232 160.638015z" />
    <glyph glyph-name="team"
      unicode="&#xE918;"
      horiz-adv-x="560" d=" M494.320312 299C494.320312 307.284271 487.604584 314 479.320312 314L296 314L296 350L374.00093 350C391.119212 350 405 363.873939 405 380.99157L405 489.0084295C405 506.126459 391.119741 520 374.00093 520L185.99907 520C168.880788 520 155 506.1260614 155 489.0084295L155 380.99157C155 363.873541 168.880259 350 185.99907 350L266 350L266 314L81.0625 314C72.7782288 314 66.0625 307.284271 66.0625 299L66.0625 220L24.9982458 220C11.1930698 220 0 208.80259 0 194.995475L0 105.004525C0 91.20016 11.1903883 80 24.9982458 80L145.001754 80C158.80693 80 170 91.19741 170 105.004525L170 194.995475C170 208.79984 158.809612 220 145.001754 220L96.0625 220L96.1455078 283.84668L266 284L266 180L219.998246 180C206.19307 180 195 168.80259 195 154.995475L195 65.004525C195 51.20016 206.190388 40 219.998246 40L340.001754 40C353.80693 40 365 51.19741 365 65.004525L365 154.995475C365 168.79984 353.809612 180 340.001754 180L296 180L296 284L464.3125 283.863281L464.320312 220L414.998246 220C401.19307 220 390 208.80259 390 194.995475L390 105.004525C390 91.20016 401.190388 80 414.998246 80L535.001754 80C548.80693 80 560 91.19741 560 105.004525L560 194.995475C560 208.79984 548.809612 220 535.001754 220L494.320313 220L494.320312 299zM185.99907 490L374.00093 490C374.554449 490 375 489.5546644 375 489.0084295L375 380.99157C375 380.445797 374.553983 380 374.00093 380L185.99907 380C185.445551 380 185 380.445336 185 380.99157L185 489.0084295C185 489.5542034 185.446017 490 185.99907 490zM335 149.989746L334.900391 70L225 69.887207L225 149.953125L335 149.989746zM140 190L140 105.004525L140 110L30 110L30 190L140 190zM420.008789 190.003906L530.248047 190.077148L530.251953 109.806641L420.017578 109.705566L420.008789 190.003906z" />
    <glyph glyph-name="forward-around"
      unicode="&#xE919;"
      horiz-adv-x="560" d=" M560 280C560 434.63973 434.63973 560 280 560C125.36027 560 0 434.63973 0 280C0 125.36027 125.36027 0 280 0C434.63973 0 560 125.36027 560 280zM30 280C30 418.071187 141.928813 530 280 530C418.071187 530 530 418.071187 530 280C530 141.928813 418.071187 30 280 30C141.928813 30 30 141.928813 30 280z M402.37781 294.999953L302.529423 389.064716C296.490058 394.735273 296.19108 404.228041 301.861637 410.267406C307.532195 416.3067710000001 317.024962 416.605748 323.064327 410.9351910000001L450.869015 290.935191C457.179078 285.010466 457.179078 274.989441 450.869015 269.064716L323.064327 149.064716C317.024962 143.394158 307.532195 143.693136 301.861637 149.732501C296.19108 155.771866 296.490058 165.264634 302.529423 170.935191L402.712069 264.999953L120 264.999953C111.715729 264.999953 105 271.715682 105 279.999953C105 288.284225 111.715729 294.999953 120 294.999953L402.37781 294.999953z" />
    <glyph glyph-name="bookmark"
      unicode="&#xE91A;"
      horiz-adv-x="560" d=" M176.035156 510L430 510L415 525L415 35L437.510236 47.984466L283.057111 137.320403C278.289514 140.077989 272.3941270000001 140.001008 267.700159 137.119875L122.153284 47.783937L145 35L145 525L130 510L176.035156 510zM115 525L115 35C115 23.2729440000001 127.852186 16.081471 137.846716 22.216063L283.393591 111.552L268.036639 111.351472L422.489764 22.015534C432.489759 16.231521 445 23.44774 445 35L445 525C445 533.2842712 438.284271 540 430 540L176.035156 540L130 540C121.715729 540 115 533.2842712 115 525z M361 404C369.284271 404 376 410.715729 376 419C376 427.284271 369.284271 434 361 434L200 434C191.715729 434 185 427.284271 185 419C185 410.715729 191.715729 404 200 404L361 404z M361 334C369.284271 334 376 340.715729 376 349C376 357.284271 369.284271 364 361 364L200 364C191.715729 364 185 357.284271 185 349C185 340.715729 191.715729 334 200 334L361 334z M280.187485 265.001172C288.471109 265.104717 295.102374 271.903861 294.998828 280.187485C294.895283 288.471109 288.096139 295.102374 279.812515 294.998828L199.812515 293.998828C191.528891 293.895283 184.897626 287.096139 185.001172 278.812515C185.104717 270.528891 191.903861 263.897626 200.187485 264.001172L280.187485 265.001172z" />
    <glyph glyph-name="download"
      unicode="&#xE91B;"
      horiz-adv-x="560" d=" M560 280C560 434.63973 434.63973 560 280 560C125.36027 560 0 434.63973 0 280C0 125.36027 125.36027 0 280 0C434.63973 0 560 125.36027 560 280zM30 280C30 418.071187 141.928813 530 280 530C418.071187 530 530 418.071187 530 280C530 141.928813 418.071187 30 280 30C141.928813 30 30 141.928813 30 280z M265.300781 157.588666L171.236019 257.771312C165.565462 263.810677 156.072694 264.109655 150.033329 258.439097C143.993964 252.76854 143.694986 243.275772 149.365544 237.236407L269.365544 109.43172C275.290269 103.121656 285.311294 103.121656 291.236019 109.43172L411.236019 237.236407C416.906576 243.275772 416.607599 252.76854 410.568234 258.439097C404.528868 264.109655 395.036101 263.810677 389.365544 257.771312L295.300781 157.922925L295.300781 440.3007350000001C295.300781 448.585006 288.585052 455.300735 280.300781 455.300735C272.01651 455.300735 265.300781 448.585006 265.300781 440.3007350000001L265.300781 157.588666z" />
    <glyph glyph-name="file-move"
      unicode="&#xE91C;"
      horiz-adv-x="560" d=" M60 58.007028C60 36.464036 77.4618339 19 99.0035485 19L460.996452 19C482.538981 19 500 36.454668 500 57.991984L500 399.6601560000001C500 403.636484 498.421168 407.450114 495.610518 410.262841L371.3624710000001 534.6026843C368.549107 537.4181263 364.73212 539 360.751953 539L98.9940374 539C77.4581876 539 60 521.533552 60 499.9929722L60 58.007028zM90 499.9929722C90 504.9681855 94.0299077 509 98.9940374 509L345 509L345 400C345 391.715729 351.715729 385 360 385L470 385L470 57.991984C470 53.025654 465.972881 49 460.996452 49L99.0035485 49C94.0312233 49 90 53.031732 90 58.007028L90 499.9929722zM446.205279 414.978439L375.039062 414.890137L375.007161 485.9155331L446.205279 414.978439zM357.37781 234.999953L257.529423 329.064716C251.490058 334.735273 251.19108 344.228041 256.861637 350.267406C262.532195 356.3067710000001 272.024962 356.605748 278.064327 350.9351910000001L405.869015 230.935191C412.179078 225.010466 412.179078 214.989441 405.869015 209.064716L278.064327 89.064716C272.024962 83.394158 262.532195 83.693136 256.861637 89.732501C251.19108 95.771866 251.490058 105.264634 257.529423 110.935191L357.712069 204.999953L155 204.999953C146.715729 204.999953 140 211.715682 140 219.999953C140 228.284225 146.715729 234.999953 155 234.999953L357.37781 234.999953z" />
    <glyph glyph-name="company"
      unicode="&#xE91D;"
      horiz-adv-x="560" d=" M60 20L60 525C60 533.2842712 66.7157288 540 75 540L285 540C293.284271 540 300 533.2842712 300 525L300 380L485 380C493.284271 380 500 373.284271 500 365L500 20L60 20zM90 50L240 50L240 364.834961C240 375.521484 247.619141 380 255.614258 380L270 380L270 510L90 510L90 50zM470 350L270 350L270 50L470 50L470 350z M310 320L350 320L350 280L310 280L310 320zM120 460L160 460L160 420L120 420L120 460zM120 380L160 380L160 340L120 340L120 380zM120 300L160 300L160 260L120 260L120 300zM120 220L160 220L160 180L120 180L120 220zM120 140L160 140L160 100L120 100L120 140zM200 460L240 460L240 420L200 420L200 460zM390 320L430 320L430 280L390 280L390 320zM310 240L350 240L350 200L310 200L310 240zM390 240L430 240L430 200L390 200L390 240z" />
    <glyph glyph-name="openlink"
      unicode="&#xE91E;"
      horiz-adv-x="560" d=" M50 71.006029C50 59.399388 59.4010173 50 71.0060289 50L428.993971 50C440.600377 50 450 59.40191 450 71.008547L450 240.546875C450 248.831146 456.715729 255.546875 465 255.546875C473.284271 255.546875 480 248.831146 480 240.546875L480 71.008547C480 42.835 457.170553 20 428.993971 20L71.0060289 20C42.8336386 20 20 42.8296820000001 20 71.006029L20 428.993971C20 457.163104 42.8340373 480 71.000925 480L209.197266 480C217.481537 480 224.197266 473.2842712 224.197266 465C224.197266 456.715729 217.481537 450 209.197266 450L71.000925 450C59.4034205 450 50 440.5954020000001 50 428.993971L50 71.006029z M287.459448 308.841013C281.601584 302.9831480000001 281.601584 293.485674 287.459448 287.627809C293.317313 281.769945 302.814787 281.769945 308.6726520000001 287.627809L508.343916 487.2990737L504.254276 350.1817710000001C503.993489 341.901605 510.49448 334.977796 518.774646 334.717009C527.054811 334.456223 533.978621 340.957214 534.239407 349.2373790000001L539.758155 524.4617543C540.03063 533.1130564 532.944695 540.1989913 524.293393 539.9265158L349.0690180000001 534.4077683C340.788853 534.1469819 334.287862 527.2231723 334.548648 518.9430068C334.809435 510.6628413 341.733244 504.1618501 350.01341 504.4226366L487.367069 508.7486338L287.459448 308.841013z" />
    <glyph glyph-name="sync"
      unicode="&#xE91F;"
      horiz-adv-x="560" d=" M89.2644969 180.664197C125.832693 110.502425 198.73233 65 280 65C398.741221 65 495 161.258779 495 280C495 288.284271 501.715729 295 510 295C518.284271 295 525 288.284271 525 280C525 144.690236 415.309764 35 280 35C191.945506 35 112.507561 81.886096 69.0938753 155.228742L49.5135714 80.226662C47.4209847 72.211037 39.2266608 67.409467 31.2110366 69.502054C23.1954124 71.59464 18.3938418 79.788964 20.4864286 87.804588L49.9825223 200.788963C51.7816173 207.680372 58.1787983 212.356433 65.2911628 211.978914L177.8146 206.006258C186.087226 205.567153 192.43755 198.5049 191.998445 190.232275C191.559341 181.959649 184.497088 175.609325 176.224462 176.04843L89.2644969 180.664197L89.2644969 180.664197z M472.675681 375.525581C436.838732 447.764413 362.798433 495 280 495C161.258779 495 65 398.741221 65 280C65 271.715729 58.2842712 265 50 265C41.7157288 265 35 271.715729 35 280C35 415.309764 144.690236 525 280 525C368.574343 525 448.355391 477.5581994 491.574726 403.640256L510.482522 476.0663072C512.575109 484.0819313 520.769433 488.8835019 528.785057 486.7909152C536.800681 484.6983285 541.602252 476.5040045 539.509665 468.4883803L510.013571 355.504005C508.214476 348.612597 501.817295 343.936536 494.704931 344.314055L382.181493 350.286711C373.908868 350.725816 367.558544 357.788068 367.9976480000001 366.060694C368.436753 374.33332 375.499006 380.683644 383.771632 380.2445390000001L472.675681 375.525581L472.675681 375.525581z" />
    <glyph glyph-name="checkmark"
      unicode="&#xE920;"
      horiz-adv-x="560" d=" M244.980314 118.676694C250.86128 111.264654 262.051867 111.082221 268.171312 118.298625L534.440425 432.298625C539.798346 438.616997 539.019747 448.082503 532.701375 453.440425C526.383003 458.798346 516.917497 458.019747 511.559575 451.701375L245.290462 137.701375L268.4814600000001 137.323306L131.750573 309.651257C126.601453 316.140919 117.166356 317.227644 110.676694 312.078524C104.187032 306.929404 103.100307 297.494307 108.249427 291.004645L244.980314 118.676694zM280 560C125.36027 560 0 434.63973 0 280C0 125.36027 125.36027 0 280 0C434.63973 0 560 125.36027 560 280C560 305.550536 556.573528 330.660869 549.882799 354.838862C547.673346 362.823063 539.409757 367.504422 531.425556 365.2949690000001C523.441354 363.085517 518.759996 354.821927 520.969449 346.837726C526.940751 325.259497 530 302.840291 530 280C530 141.928813 418.071187 30 280 30C141.928813 30 30 141.928813 30 280C30 418.071187 141.928813 530 280 530C344.982847 530 406.019627 505.1220697 452.182099 461.2556113C458.187404 455.548996 467.681791 455.791132 473.388407 461.796437C479.095022 467.8017422 478.852886 477.2961298 472.847581 483.0027452C421.163445 532.1162332 352.7519930000001 560 280 560z" />
    <glyph glyph-name="copy"
      unicode="&#xE921;"
      horiz-adv-x="560" d=" M124 117.007028C124 95.464036 141.461834 78 163.003548 78L464.996452 78C486.538981 78 504 95.454668 504 116.991984L504 398.6601560000001C504 402.636484 502.421168 406.450114 499.610518 409.262841L375.3624710000001 533.6026843C372.549107 536.4181263 368.73212 538 364.751953 538L162.994037 538C141.458188 538 124 520.533552 124 498.9929722L124 117.007028zM450.205279 413.978439L379.039062 413.890137L379.007161 484.9155331L450.205279 413.978439zM154 498.9929722C154 503.9681855 158.029908 508 162.994037 508L349 508L349 399C349 390.715729 355.715729 384 364 384L474 384L474 116.991984C474 112.025654 469.972881 108 464.996452 108L163.003548 108C158.031223 108 154 112.031732 154 117.007028L154 498.9929722z M54.5046527 58.988281C54.5046527 45.298719 60.0277376 34.602496 69.0978368 27.601827C72.2454702 25.172357 75.5698626 23.380907 78.9123066 22.098832C79.1923137 21.991429 88.4902344 21.213701 95.453125 20.528726C102.416016 19.84375 347.239848 20.528726 354.2292990000001 20.528726C361.21875 20.528726 370.217176 24.335142 371.7591300000001 32.474646C373.301085 40.61415 369.358254 47.055702 361.21875 48.597656C361.459301 48.552086 360.180937 49.929877 360.214183 49.920813C360.084705 49.956114 89.8923412 50.018409 89.656264 50.108962C88.8932545 50.401633 88.1121934 50.822531 87.4280703 51.350565C85.5502935 52.799909 84.5046527 54.824938 84.5046527 58.988281C84.5046527 58.988281 84.5033558 379.200423 84.500762 379.314279C84.3643015 385.304451 84.9079644 389.783406 85.8926335 392.885536C86.2188297 393.913194 86.5615753 394.684273 87.2536368 395.745005C86.7748193 395.284623 85.6837094 394.9439710000001 83.6996846 394.982181C91.9786955 394.687007 98.929446 401.159185 99.2246203 409.438196C99.5197946 417.7172070000001 93.0476162 424.667957 84.4931619 424.970502C78.896418 425.072026 72.3428085 423.025942 66.4608362 417.3704400000001C58.1815747 409.409951 54.1002874 396.552144 54.5046527 378.9726560000001L54.5046527 58.988281z" />
    <glyph glyph-name="rename"
      unicode="&#xE922;"
      horiz-adv-x="560" d=" M521.003933 375C525.973594 375 530 370.97314 530 365.997931L530 194.002069C530 189.030218 525.969775 185 520.997591 185L471.511719 185C463.227448 185 456.511719 178.284271 456.511719 170C456.511719 161.715729 463.227448 155 471.511719 155L520.997591 155C542.538307 155 560 172.461665 560 194.002069L560 365.997931C560 387.540926 542.542893 405 521.003933 405L471.539062 405C463.254791 405 456.539062 398.284271 456.539062 390C456.539062 381.715729 463.254791 375 471.539062 375L521.003933 375zM39.0005999 185C34.0278011 185 30 189.027494 30 194.002069L30 365.997931C30 370.970299 34.02967 375 39.0031543 375L311.429688 375C319.713959 375 326.429688 381.715729 326.429688 390C326.429688 398.284271 319.713959 405 311.429688 405L39.0031543 405C17.4610752 405 0 387.538789 0 365.997931L0 194.002069C0 172.45844 17.4597702 155 39.0005999 155L310.945313 155C319.229584 155 325.945313 161.715729 325.945313 170C325.945313 178.284271 319.229584 185 310.945313 185L39.0005999 185z M377 97C377 88.715729 383.715729 82 392 82C400.284271 82 407 88.715729 407 97L407 463C407 471.2842712 400.284271 478 392 478C383.715729 478 377 471.2842712 377 463L377 97z M312 264C320.284271 264 327 270.715729 327 279C327 287.284271 320.284271 294 312 294L79 294C70.7157288 294 64 287.284271 64 279C64 270.715729 70.7157288 264 79 264L312 264z" />
    <glyph glyph-name="smart"
      unicode="&#xE923;"
      horiz-adv-x="560" d=" M414.786782 190.569897C417.687136 195.868994 441.000506 236.836994 447.196047 248.688036C468.169537 288.806841 478 321.703867 478 362C478 471.3523805 389.35238 560 280 560C170.64762 560 82 471.3523805 82 362C82 339.730369 86.1898937 319.007893 94.3034645 298.392305C100.908172 281.610552 109.609925 265.749611 122.653443 245.44643C125.254233 241.3981120000001 127.939295 237.299965 131.614748 231.747968C132.277927 230.746195 132.950658 229.731184 133.875159 228.337161C134.440611 227.484582 134.440611 227.484582 135.00612 226.631954C135.456475 225.952919 135.801303 225.432905 136.137047 224.926429C137.957614 222.180078 139.320585 220.118619 140.65248 218.094484C163.487515 183.391146 175.673754 160.54765 184.314745 132.318591C186.739527 124.397127 195.126816 119.941186 203.048279 122.365968C210.969743 124.790749 215.425684 133.178038 213.000902 141.099502C203.335959 172.673685 189.989601 197.691863 165.713702 234.58494C164.359708 236.642661 162.979687 238.7299070000001 161.141897 241.50224C160.804691 242.010919 160.458722 242.532656 160.007224 243.213413C159.441243 244.066754 159.441243 244.066754 158.876724 244.917926C157.956381 246.305678 157.287704 247.314573 156.629941 248.308164C153.023793 253.755473 150.406116 257.750771 147.893618 261.661656C135.819169 280.456411 127.975281 294.753698 122.219281 309.378988C115.441091 326.601536 112 343.620567 112 362C112 454.783838 187.216162 530 280 530C372.783838 530 448 454.783838 448 362C448 327.140171 439.517446 298.7538390000001 420.609908 262.586858C414.712376 251.305857 391.602338 210.695166 388.470688 204.973481C376.38156 182.886016 367.028414 163.545517 358.794003 142.673226C355.753782 134.966982 359.536341 126.25525 367.242586 123.215029C374.94883 120.174807 383.6605620000001 123.957367 386.700783 131.663611C394.424211 151.240682 403.2537 169.498359 414.786782 190.569897z M234.906252 337.921536C229.559549 330.046174 232.805794 319.246669 241.608557 315.624524L316.206213 284.929211L308.769873 306.027834L256.722998 211.367678C252.731607 204.108343 255.380799 194.987827 262.640135 190.996436C269.89947 187.005045 279.019985 189.654237 283.011377 196.913572L335.058252 291.573728C339.370549 299.416712 335.898915 309.266545 327.621912 312.672351L253.024256 343.367664L259.72656 321.070651L321.433591 411.961276C326.086835 418.815215 324.302819 428.1436290000001 317.44888 432.796873C310.594941 437.450116 301.266527 435.6661000000001 296.613284 428.812161L234.906252 337.921536z M350 0C358.284271 0 365 6.715729 365 15C365 23.284271 358.284271 30 350 30L210 30C201.715729 30 195 23.284271 195 15C195 6.715729 201.715729 0 210 0L350 0z M370 60C378.284271 60 385 66.715729 385 75C385 83.284271 378.284271 90 370 90L190 90C181.715729 90 175 83.284271 175 75C175 66.715729 181.715729 60 190 60L370 60z" />
    <glyph glyph-name="analytics"
      unicode="&#xE924;"
      horiz-adv-x="560" d=" M541 19C549.284271 19 556 25.715729 556 34C556 42.284271 549.284271 49 541 49L20 49C11.7157288 49 5 42.284271 5 34C5 25.715729 11.7157288 19 20 19L541 19z M40.5 116.498452C40.5 108.214181 47.2157288 101.498452 55.5 101.498452C63.7842712 101.498452 70.5 108.214181 70.5 116.498452L70.5 337.000567C70.5 345.2848380000001 63.7842712 352.000567 55.5 352.000567C47.2157288 352.000567 40.5 345.2848380000001 40.5 337.000567L40.5 116.498452z M152.75 116.498452C152.75 108.214181 159.465729 101.498452 167.75 101.498452C176.034271 101.498452 182.75 108.214181 182.75 116.498452L182.75 451C182.75 459.284271 176.034271 466 167.75 466C159.465729 466 152.75 459.284271 152.75 451L152.75 116.498452z M265 116.498452C265 108.214181 271.715729 101.498452 280 101.498452C288.284271 101.498452 295 108.214181 295 116.498452L295 292.045578C295 300.329849 288.284271 307.045578 280 307.045578C271.715729 307.045578 265 300.329849 265 292.045578L265 116.498452z M377.25 116.498452C377.25 108.214181 383.965729 101.498452 392.25 101.498452C400.534271 101.498452 407.25 108.214181 407.25 116.498452L407.25 345.001231C407.25 353.285502 400.534271 360.001231 392.25 360.001231C383.965729 360.001231 377.25 353.285502 377.25 345.001231L377.25 116.498452z M489.5 116.498452C489.5 108.214181 496.215729 101.498452 504.5 101.498452C512.784271 101.498452 519.5 108.214181 519.5 116.498452L519.5 525.0370239C519.5 533.3212951 512.784271 540.0370239 504.5 540.0370239C496.215729 540.0370239 489.5 533.3212951 489.5 525.0370239L489.5 116.498452z" />
    <glyph glyph-name="overview"
      unicode="&#xE925;"
      horiz-adv-x="560" d=" M431 290C439.284271 290 446 296.715729 446 305C446 313.284271 439.284271 320 431 320L123 320C114.715729 320 108 313.284271 108 305C108 296.715729 114.715729 290 123 290L431 290z M251 405C259.284271 405 266 411.715729 266 420C266 428.284271 259.284271 435 251 435L123 435C114.715729 435 108 428.284271 108 420C108 411.715729 114.715729 405 123 405L251 405z M363.086773 465C355.853109 465 350 459.140852 350 451.913227L350 388.086773C350 380.853109 355.859148 375 363.086773 375L426.913227 375C434.146891 375 440 380.859148 440 388.086773L440 451.913227C440 459.146891 434.140852 465 426.913227 465L363.086773 465z M431 210C439.284271 210 446 216.715729 446 225C446 233.284271 439.284271 240 431 240L123 240C114.715729 240 108 233.284271 108 225C108 216.715729 114.715729 210 123 210L431 210z M351 130C359.284271 130 366 136.715729 366 145C366 153.284271 359.284271 160 351 160L123 160C114.715729 160 108 153.284271 108 145C108 136.715729 114.715729 130 123 130L351 130z M66.0013022 530L493.998698 530C494.550872 530 495 529.5507416 495 528.9937583L495 31.006242C495 30.44564 494.554648 30 493.998698 30L66.0013022 30C65.4491279 30 65 30.449258 65 31.006242L65 528.9937583C65 529.5543603 65.4453519 530 66.0013022 530zM35 31.006242C35 13.882666 48.8786346 0 66.0013022 0L493.998698 0C511.127531 0 525 13.881435 525 31.006242L525 528.9937583C525 546.117334 511.121365 560 493.998698 560L66.0013022 560C48.8724687 560 35 546.1185652 35 528.9937583L35 31.006242z" />
    <glyph glyph-name="lawyer"
      unicode="&#xE926;"
      horiz-adv-x="560" d=" M236.335937 248.15625C236.335937 251.992767 234.865905 255.683457 232.22815 258.469334C232.05157 258.65583 231.596881 259.15572 230.904058 259.951669C229.676149 261.362349 228.288271 263.035978 226.780326 264.954746C222.418447 270.504972 218.038782 276.835633 213.956735 283.795556C205.923175 297.49284 200.098323 311.823349 197.382289 326.267979C196.37268 331.637363 192.523511 336.033165 187.33441 337.742791C186.6077 338.024599 186.046657 338.261541 185.426 338.549275C183.626901 339.383328 181.827479 340.410616 180.22405 341.584094C176.68376 344.175073 175.089844 346.624343 175.089844 349.074219C175.089844 353.219661 176.395324 356.386522 178.675937 359.045073C179.491913 359.99627 180.368435 360.797145 181.208564 361.4236150000001C187.418342 364.845107 190.514241 371.439545 189.189691 377.934731C189.011482 378.88281 188.90677 379.4774240000001 188.791994 380.1687120000001C188.454051 382.204122 188.112291 384.568532 187.791099 387.222036C185.318562 407.648732 185.606747 429.713339 190.458765 450.015249C195.074108 469.326859 203.466033 485.0340191 216.14358 496.3045994C231.215553 509.7038707 252.541281 517.0664062 281.640625 517.0664062C310.687434 517.0664062 331.923952 509.6069277 346.907463 496.0181487C359.54246 484.5592728 367.879015 468.5647215 372.412076 448.898435C377.149424 428.345864 377.357222 406.009142 374.818361 385.265356C374.477605 382.481198 374.114873 379.997176 373.755974 377.855798C373.633879 377.12732 373.522382 376.499879 373.424734 375.978748C371.867781 368.372877 375.71495 361.231199 382.462288 358.5377190000001C383.452171 357.899004 384.277986 357.261637 385.041722 356.482465C387.224295 354.255777 388.484375 351.4051560000001 388.484375 347.09375C388.484375 344.524106 387.269425 342.763516 384.209401 340.89411C382.761245 340.009414 381.101073 339.273504 379.433826 338.720787C378.855544 338.5290780000001 378.334913 338.3788600000001 377.897517 338.268773C371.685032 337.064464 366.953559 332.30495 365.82634 326.2347200000001C362.927078 310.621795 357.0104590000001 295.606421 348.949469 281.567562C344.773974 274.2956040000001 340.300463 267.770168 335.849777 262.117416C334.315224 260.168401 332.904679 258.479206 331.658887 257.064767C330.9612 256.272632 330.508242 255.782764 330.340901 255.609676C327.636658 252.812574 326.125 249.074186 326.125 245.1835940000001L326.125 212.216797C326.125 203.932526 332.840729 197.216797 341.125 197.216797C349.409271 197.216797 356.125 203.932526 356.125 212.216797L356.125 245.1835940000001L351.9090990000001 234.757511C352.392777 235.257797 353.16048 236.088059 354.171718 237.236191C355.774134 239.055531 357.537306 241.167015 359.420602 243.558962C364.735201 250.308958 370.026975 258.02798 374.9657450000001 266.629243C384.6140470000001 283.432531 391.757424 301.561211 395.322098 320.757468L383.399942 308.764655C383.851179 308.8512090000001 384.464444 308.985978 385.219762 309.176081C386.3484900000001 309.460167 387.572969 309.813467 388.874036 310.244789C392.576356 311.472163 396.285752 313.11644 399.849193 315.29339C411.108016 322.171542 418.484375 332.860659 418.484375 347.09375C418.484375 359.585079 413.946604 369.8506680000001 406.466091 377.4823790000001C403.847746 380.153646 401.0499040000001 382.313032 398.215028 384.03153C396.381711 385.142883 394.800177 385.914528 393.584587 386.399781L402.716197 369.44835C402.85758 370.1361060000001 403.075467 371.298925 403.343291 372.896899C403.773683 375.464839 404.200244 378.3859760000001 404.59616 381.62081C407.523335 405.537321 407.284865 431.1710070000001 401.645541 455.636721C395.832227 480.8572755 384.672475 502.2684249 367.061165 518.2403962C346.29904 537.0698911 317.839788 547.0664062 281.640625 547.0664062C245.493997 547.0664062 217.040215 537.2429676 196.211035 518.7254299C178.510682 502.9894795 167.226857 481.8695521 161.280493 456.988657C155.476538 432.703633 155.144455 407.2780420000001 158.00849 383.6170180000001C158.38397 380.515014 158.788644 377.715341 159.197135 375.255022C159.451766 373.7213960000001 159.659329 372.604009 159.794684 371.940269L167.409364 388.159966C166.33076 387.582195 164.916439 386.697292 163.275079 385.473358C160.739658 383.582737 158.240631 381.2993840000001 155.906094 378.5779740000001C149.185242 370.74336 145.089844 360.8086590000001 145.089844 349.074219C145.089844 335.6442120000001 151.95247 325.098852 162.506419 317.37489C165.835973 314.938139 169.321891 312.948032 172.808131 311.331829C174.037342 310.761973 175.194035 310.273473 176.258531 309.8615670000001C176.965766 309.587904 177.535281 309.384991 177.94684 309.249396L167.898961 320.724208C171.312943 302.567693 178.414017 285.097381 188.07919 268.618182C192.886257 260.422093 198.030643 252.986055 203.192814 246.417505C205.018288 244.094702 206.725726 242.035719 208.275665 240.255075C209.249551 239.136228 209.985368 238.327261 210.443725 237.843166L206.335937 248.15625L206.335938 212.216797C206.335938 203.932526 213.051666 197.216797 221.335938 197.216797C229.620209 197.216797 236.335938 203.932526 236.335938 212.216797L236.335937 248.15625z M342.042841 109.434239C343.382204 110.971125 344.42491 112.801791 345.059863 114.856559L360.331348 164.27648C362.740854 172.073864 358.474303 180.36684 350.729383 182.939998C350.38485 183.054465 349.847671 183.223667 349.122092 183.439405C348.007424 183.770833 346.713036 184.132326 345.243179 184.515665C341.159991 185.580561 336.427112 186.633733 331.078651 187.609146C316.002103 190.358694 298.883168 192 280 192C261.116832 192 243.997897 190.358694 228.921349 187.609146C223.572888 186.633733 218.840009 185.580561 214.756821 184.515665C213.286964 184.132326 211.992576 183.770833 210.877908 183.439405C210.152329 183.223667 209.61515 183.054465 209.270617 182.939998C201.665779 180.413381 197.38999 172.355412 199.56091 164.641498L213.469113 115.221576C213.925016 113.60162 214.633509 112.113381 215.542079 110.790929L206.123747 37.922781C205.061824 29.706853 210.861291 22.185669 219.077219 21.123747C227.293147 20.061824 234.814331 25.8612910000001 235.876253 34.077219L245.216586 106.341896C245.887453 106.416163 246.563529 106.489746 247.244238 106.56251C253.927859 107.276953 260.434379 107.845154 266.5080490000001 108.212775C271.4554 108.512223 275.98742 108.669922 280 108.669922C283.7446530000001 108.669922 287.92855 108.528502 292.467327 108.258958C298.595627 107.895018 305.170138 107.311086 311.917479 106.567746C311.97392 106.561528 312.030327 106.555304 312.086699 106.549074L325.230133 32.382555C326.675707 24.225383 334.460272 18.7845579999999 342.617445 20.230133C350.774617 21.675707 356.215442 29.460272 354.769867 37.617445L342.042841 109.434239L342.042841 109.434239zM234.303748 158.095932C247.654325 160.53071 262.979115 162 280 162C297.020885 162 312.3456750000001 160.53071 325.696252 158.095932L326.96293 157.905528L320.2023 135.812534C320.2023 135.812534 316.901803 136.200139 315.202638 136.387332C307.986862 137.182279 300.923535 137.809626 294.245797 138.206196C289.149422 138.508853 284.384231 138.669922 280 138.669922C275.331292 138.669922 270.208955 138.491682 264.695556 138.157972C258.121093 137.76004 251.167593 137.152805 244.055567 136.392568C239.447478 135.899988 238.852418 135.767052 238.852418 135.767052L232.66985 157.735527L234.303748 158.095932z M73.6068364 144.673844C52.3778849 134.414777 36.0038801 124.151703 28.1601516 116.596203C20.2115495 108.939683 16.532166 95.000496 13.7204567 73.099689C12.6593901 64.83489 11.8711368 56.05268 11.3097034 47.280774C11.1137034 44.218445 10.9597288 41.3722780000001 10.8429257 38.811325C10.7720139 37.256557 10.728859 36.128366 10.7087568 35.496492C10.4453387 27.21641 16.944129 20.290534 25.2242112 20.027116C33.5042934 19.763698 40.4301688 26.262488 40.6935869 34.542571C40.6970754 34.652225 40.7055159 34.893875 40.7194669 35.258592C40.7434201 35.8847960000001 40.7740041 36.616408 40.8117713 37.444469C40.9205117 39.8286450000001 41.0646376 42.492763 41.2484447 45.364587C41.7721744 53.547406 42.505704 61.71992 43.4762355 69.279529C44.4564654 76.91468 45.624445 83.455755 46.9478691 88.469491C47.6076404 90.969006 48.2804323 92.983814 48.9112605 94.411925C49.1482045 94.948335 49.3505694 95.336826 49.4903633 95.558926C49.4512143 95.496727 49.3012532 95.306253 48.9726609 94.989735C54.0951709 99.924011 68.0378322 108.663142 86.6602534 117.662582C111.230805 129.536505 141.60239 140.92921 176.668053 150.749055C184.645422 152.98305 189.301346 161.260997 187.067351 169.238366C184.833356 177.215735 176.55541 181.871659 168.578041 179.637664C131.831333 169.347056 99.7986463 157.331254 73.6068364 144.673844z M473.962793 117.469222C492.585215 108.469783 506.527876 99.730652 511.650386 94.796375C511.321794 95.112893 511.171833 95.303367 511.132684 95.365566C511.272477 95.143466 511.474842 94.754975 511.711786 94.218566C512.342615 92.790455 513.015406 90.775646 513.675178 88.276131C514.998602 83.262396 516.166581 76.721321 517.146811 69.086169C518.117343 61.52656 518.850872 53.354046 519.374602 45.171228C519.558409 42.299403 519.702535 39.635285 519.811276 37.25111C519.849043 36.423049 519.879627 35.691437 519.90358 35.065233C519.917531 34.700516 519.925971 34.4588659999999 519.92946 34.349211C520.192878 26.069129 527.118753 19.570339 535.398836 19.833757C543.678918 20.097175 550.177708 27.02305 549.91429 35.303133C549.894188 35.935007 549.851033 37.0631980000001 549.780121 38.617966C549.663318 41.178918 549.509343 44.025086 549.313343 47.087415C548.75191 55.85932 547.963657 64.64153 546.90259 72.90633C544.090881 94.807137 540.411497 108.746323 532.462895 116.402843C524.619167 123.958344 508.245162 134.221418 487.01621 144.480485C460.824401 157.137894 428.791714 169.153697 392.045006 179.444304C384.067637 181.678299 375.789691 177.022375 373.555696 169.045006C371.321701 161.067637 375.977625 152.789691 383.954994 150.555696C419.0206570000001 140.735851 449.392242 129.343145 473.962793 117.469222z" />
    <glyph glyph-name="opposite"
      unicode="&#xE927;"
      horiz-adv-x="560" d=" M66.5 152.5L66.5 36.461871C66.5 28.177599 59.7842712 21.461871 51.5 21.461871C43.2157288 21.461871 36.5 28.177599 36.5 36.461871L36.5 152.632171C29.1612811 153.609956 23.5 159.893846 23.5 167.5C23.5 175.784271 30.2157288 182.5 38.5 182.5L522.5 182.5C530.784271 182.5 537.5 175.784271 537.5 167.5C537.5 159.551757 531.318032 153.047391 523.5 152.532805L523.5 36.461871C523.5 28.177599 516.784271 21.461871 508.5 21.461871C500.215729 21.461871 493.5 28.177599 493.5 36.461871L493.5 152.5L66.5 152.5z M327.076744 295.594292C326.851167 297.002667 326.648834 298.351609 326.47305 299.609173C350.046143 316.0277210000001 369.822694 343.3408560000001 379.799421 372.86947C380.413788 373.22938 381.294913 373.7101820000001 382.639506 374.422572C387.000872 376.733289 388.936845 377.869053 391.428254 379.871447C396.182709 383.692695 399.463387 388.582093 400.202719 394.9523480000001C400.4088510000001 396.728424 400.653489 398.549938 401.012924 401.046023C402.574529 411.890563 402.712891 413.000936 402.712891 416.939453C402.712891 423.578813 399.72256 428.1576760000001 395.139798 432.24012C393.128473 434.031861 391.455046 435.2201810000001 387.837256 437.61784C387.053899 438.137003 386.425966 438.5566350000001 385.914628 438.903935C379.799421 489.1171875 344.978516 538.9994859 279.875815 538.9994859C216.217818 538.9994859 181.025632 501.3854567 174.226523 440.171439C173.535741 439.734169 172.644209 439.184805 171.45129 438.457836C167.372855 435.972426 165.477428 434.733764 163.251921 432.9077220000001C161.366228 431.360499 159.756361 429.731694 158.387826 427.79987C156.186403 424.692342 154.816406 421.07716 154.816406 416.939453C154.816406 416.742888 154.817603 416.914845 154.80887 415.770402C154.774478 411.263596 154.839436 407.8709790000001 155.152368 404.031989C155.818753 395.856905 157.196172 389.939852 161.1278 384.9258670000001C164.162593 381.055612 167.51556 379.044907 173.249923 376.437826C174.314456 375.953844 175.418535 375.471626 177.392064 374.615605C178.876248 373.96737 179.99317 373.457912 180.844942 373.0385310000001C187.749907 347.422206 201.990015 324.733112 222.888214 303.519556C222.837188 300.913691 222.582337 297.549368 222.141264 293.945044C221.180907 286.097293 219.527517 278.4755 217.610709 273.124713C216.245615 272.336545 214.052294 271.350321 211.046918 270.316825C206.205352 268.651895 200.132394 267.105138 190.623105 265.027863C188.118761 264.480797 179.089465 262.552511 177.723566 262.257303C172.346009 261.095067 168.080699 260.132406 163.919641 259.12444C155.426412 257.067057 148.063316 254.97414 141.232423 252.589769C118.217082 244.556101 106.556443 237.80468 98.9931092 228.430551C97.4824737 226.558243 96.3404201 224.892062 94.7496188 222.377139C94.5872702 222.12048 94.0578404 221.279995 93.9968468 221.183373C93.7235011 220.750358 93.5133177 220.42014 93.3115241 220.107521C88.8187623 213.147331 90.8190079 203.86288 97.7791977 199.370118C104.739387 194.877356 114.023839 196.877602 118.516601 203.837791C118.781877 204.248757 119.042377 204.658029 119.36514 205.169326C119.440072 205.288028 119.959169 206.11211 120.103224 206.339848C121.12852 207.960755 121.715604 208.817273 122.341176 209.592617C125.669112 213.71732 132.90971 217.909571 151.119139 224.2657C156.914809 226.28872 163.371994 228.124137 170.982512 229.967693C174.863921 230.907918 178.905432 231.820069 184.061052 232.9343380000001C185.36325 233.215778 194.438193 235.153813 197.025534 235.7190090000001C207.597921 238.0285150000001 214.572227 239.804841 220.802673 241.947383C229.652154 244.990564 236.279691 248.588898 241.113843 253.827909C242.187219 254.991179 243.069712 256.317009 243.728569 257.756189C247.633741 266.286486 250.427999 278.1159610000001 251.919127 290.301025C252.557473 295.517404 252.901156 300.48208 252.897734 304.51765C252.895781 306.819786 252.784256 308.863624 252.525922 310.691577C252.340309 312.004963 252.076981 313.248033 251.672125 314.503571C250.875457 316.974198 249.693138 319.225452 247.461412 321.394147C227.239371 341.045045 214.388078 361.322523 209.023388 383.957366C207.556973 390.144504 203.800585 394.147018 198.596456 397.453685C196.013345 399.094976 193.520995 400.3077 189.399596 402.10777C187.357916 402.994164 186.493075 403.371893 185.666191 403.747829C185.226355 404.650432 185.130994 405.5148880000001 185.053194 406.469327C184.922093 408.077645 184.85056 409.666663 184.819715 411.454854C185.429882 411.839255 186.165707 412.2931680000001 187.062921 412.839933C191.207815 415.3658440000001 192.78483 416.3813780000001 194.902584 418.052095C196.697823 419.4683770000001 198.242538 420.940288 199.591894 422.669963C201.799806 425.500181 203.305919 428.783209 203.635539 432.684087C207.838386 482.4226582 231.515192 509.0005141 280.124185 509.0005141C329.087891 509.0005141 345.701172 483.7929688 356.442542 431.753085C357.700492 425.658555 359.865982 421.463204 364.283315 417.668279C366.200778 416.020989 367.620492 415.026 371.264272 412.6111170000001C371.625317 412.3718370000001 371.954692 412.152433 372.255613 411.950663C372.047648 410.4025870000001 371.748247 408.3013650000001 371.319205 405.3218960000001C371.15286 404.166711 371.00739 403.131872 370.876512 402.164082C370.316078 401.851374 369.598283 401.463593 368.671733 400.972693C364.840534 398.942854 363.113335 397.947992 360.885981 396.292939C356.743598 393.2149080000001 353.628353 389.4915660000001 352.0260160000001 384.44945C343.461141 357.49813 324.397529 332.3987 303.465392 320.523149C297.451407 317.1112 296.481488 314.135136 295.860431 308.9050690000001C295.746854 307.9486060000001 295.716891 307.077182 295.728521 306.128973C295.743011 304.947599 295.831381 303.568377 295.98305 301.95528C296.264844 298.958207 296.775437 295.088173 297.454303 290.849715C299.0873900000001 280.653653 301.4498500000001 269.663851 304.285696 259.839874C305.185468 256.722868 307.071567 253.981594 309.6611020000001 252.027208C321.947263 242.7545380000001 338.9694 236.58573 365.407406 230.021461C370.99856 228.633239 390.782331 224.006942 394.777428 223.017619C401.5125980000001 221.34976 406.535215 219.944404 410.494332 218.587546C419.676259 215.440741 427.20596 211.051235 432.808822 206.238846C434.34235 204.921674 435.589659 203.685171 436.445774 202.703453C439.334796 196.007935 446.759406 192.246261 454.027104 194.157106C459.266029 195.53454 463.172324 199.514049 464.646353 204.41276C465.464656 207.132268 465.440921 209.475586 465.013631 211.708522C464.660081 213.556105 464.094801 214.969511 463.355034 216.384191C462.613651 217.80196 461.674138 219.189416 460.548553 220.621261C458.470431 223.264817 455.665849 226.153552 452.355819 228.9965900000001C443.923912 236.238892 433.081971 242.559296 420.220512 246.9671410000001C415.274492 248.6622280000001 409.500047 250.277949 401.988641 252.138031C397.737407 253.190782 377.965653 257.814269 372.636581 259.13742C353.369958 263.921112 340.137374 268.3923930000001 331.692333 273.351547C329.831538 280.560127 328.241611 288.321521 327.076744 295.594292z M196.5 105.016412L196.5 36.461871C196.5 28.177599 203.215729 21.461871 211.5 21.461871C219.784271 21.461871 226.5 28.177599 226.5 36.461871L226.5 105.016412C226.5 113.300684 219.784271 120.016412 211.5 120.016412C203.215729 120.016412 196.5 113.300684 196.5 105.016412z M336.5 105.016412L336.5 36.461871C336.5 28.177599 343.215729 21.461871 351.5 21.461871C359.784271 21.461871 366.5 28.177599 366.5 36.461871L366.5 105.016412C366.5 113.300684 359.784271 120.016412 351.5 120.016412C343.215729 120.016412 336.5 113.300684 336.5 105.016412z" />
    <glyph glyph-name="firm"
      unicode="&#xE928;"
      horiz-adv-x="560" d=" M475 130L475 349L510 349C524.688171 349 530.623563 367.925685 518.565967 376.313578L288.565967 536.313578C283.416992 539.895474 276.583008 539.895474 271.434033 536.313578L41.4340327 376.313578C29.376437 367.925685 35.3118294 349 50 349L85 349L85 130L60 130C51.7157288 130 45 123.284271 45 115C45 106.715729 51.7157288 100 60 100L500 100C508.284271 100 515 106.715729 515 115C515 123.284271 508.284271 130 500 130L475 130L475 130zM97.7972069 378.956888L280.084541 505.6686771L462.119509 379.035656L97.7972069 378.956888zM115 349L175 349L175 130L115 130L115 349zM385 349L445 349L445 130L385 130L385 349zM295 349L355 349L355 130L295 130L295 349zM205 349L265 349L265 130L205 130L205 349z M525 20C533.284271 20 540 26.715729 540 35C540 43.284271 533.284271 50 525 50L35 50C26.7157288 50 20 43.284271 20 35C20 26.715729 26.7157288 20 35 20L525 20z" />
    <glyph glyph-name="ellipses"
      unicode="&#xE929;"
      horiz-adv-x="560" d=" M155 255C168.807119 255 180 266.192881 180 280C180 293.807119 168.807119 305 155 305C141.192881 305 130 293.807119 130 280C130 266.192881 141.192881 255 155 255zM280 255C293.807119 255 305 266.192881 305 280C305 293.807119 293.807119 305 280 305C266.192881 305 255 293.807119 255 280C255 266.192881 266.192881 255 280 255zM405 255C418.807119 255 430 266.192881 430 280C430 293.807119 418.807119 305 405 305C391.192881 305 380 293.807119 380 280C380 266.192881 391.192881 255 405 255z" />
    <glyph glyph-name="template"
      unicode="&#xE92A;"
      horiz-adv-x="560" d=" M35 31.006242C35 13.882666 48.8786346 0 66.0013022 0L493.998698 0C511.127531 0 525 13.881435 525 31.006242L525 528.9937583C525 546.117334 511.121365 560 493.998698 560L66.0013022 560C48.8724687 560 35 546.1185652 35 528.9937583L35 31.006242zM66.0013022 530L493.998698 530C494.550872 530 495 529.5507416 495 528.9937583L495 31.006242C495 30.44564 494.554648 30 493.998698 30L66.0013022 30C65.4491279 30 65 30.449258 65 31.006242L65 528.9937583C65 529.5543603 65.4453519 530 66.0013022 530z M105 479L105 359C105 350.715729 111.715729 344 120 344L440 344C448.284271 344 455 350.715729 455 359L455 479C455 487.2842712 448.284271 494 440 494L120 494C111.715729 494 105 487.2842712 105 479zM135.675297 464L424.324703 464C424.6971 464 425 463.9191335 425 463.8188765L425 374.181124C425 374.080215 424.699646 374 424.324703 374L135.675297 374C135.3029 374 135 374.080867 135 374.181124L135 463.8188765C135 463.9197849 135.300354 464 135.675297 464z M105 284L105 80C105 71.715729 111.715729 65 120 65L200 65C208.284271 65 215 71.715729 215 80L215 284C215 292.284271 208.284271 299 200 299L120 299C111.715729 299 105 292.284271 105 284zM135.11643 269L184.88357 269C184.947776 269 185 268.843658 185 268.649828L185 95.350172C185 95.155083 184.948215 95 184.88357 95L135.11643 95C135.052224 95 135 95.156342 135 95.350172L135 268.649828C135 268.844917 135.051785 269 135.11643 269z M265 284L265 80C265 71.715729 271.715729 65 280 65L440 65C448.284271 65 455 71.715729 455 80L455 284C455 292.284271 448.284271 299 440 299L280 299C271.715729 299 265 292.284271 265 284zM295.302719 269L424.697281 269C424.864217 269 425 268.843658 425 268.649828L425 95.350172C425 95.155083 424.865359 95 424.697281 95L295.302719 95C295.135783 95 295 95.156342 295 95.350172L295 268.649828C295 268.844917 295.134641 269 295.302719 269z" />
    <glyph glyph-name="email"
      unicode="&#xE92B;"
      horiz-adv-x="560" d=" M25 360.00555C25 367.223184 28.9883935 374.682883 34.991378 378.693373L271.667274 536.8124408C276.711366 540.1823114 283.288634 540.1823114 288.332726 536.8124408L525.008622 378.693373C531.008884 374.684702 535 367.216491 535 360.00555L535 37.99445C535 27.4965539999999 526.490634 19 515.994546 19L44.0054545 19C33.516614 19 25 27.503564 25 37.99445L25 360.00555zM280.5273440000001 506.9765625L54.8789062 355.803711L54.8789062 322.4257810000001L203.757812 203.039062L265.3867190000001 258.342773C276.942383 268.42334 283.870117 268.544922 295.368164 258.342773L357.368164 203.039062L505.234375 320.25L505.234375 356.007812L280.5273440000001 506.9765625zM55.0722656 283.858398L55.0722656 71.666016L180.737305 183.207031L55.0722656 283.858398zM486.988281 48.96875L279.7617190000001 231.101562L74.5351562 48.96875L486.988281 48.96875zM505 284L379.8242190000001 183.285156L505 71.807617L505 284zM140 325C131.715729 325 125 331.715729 125 340C125 348.284271 131.715729 355 140 355L420 355C428.284271 355 435 348.284271 435 340C435 331.715729 428.284271 325 420 325L140 325z" />
    <glyph glyph-name="phone"
      unicode="&#xE92C;"
      horiz-adv-x="560" d=" M424.995781 220.394515C414.763713 231.048523 402.421941 236.744726 389.341772 236.744726C376.367089 236.744726 363.919831 231.154008 353.265823 220.5L319.932489 187.272152C317.189873 188.748945 314.447257 190.120253 311.810127 191.491561C308.012658 193.390295 304.42616 195.183544 301.367089 197.082278C270.14346 216.913502 241.767932 242.757384 214.552743 276.1962030000001C201.367089 292.862869 192.506329 306.892405 186.07173 321.1329110000001C194.721519 329.044304 202.738397 337.272152 210.544304 345.183544C213.49789 348.137131 216.451477 351.196203 219.405063 354.149789C241.556962 376.301688 241.556962 404.993671 219.405063 427.14557L190.607595 455.943038C187.337553 459.21308 183.962025 462.5886076 180.797468 465.964135C174.468354 472.5042194 167.822785 479.2552743 160.966245 485.5843882C150.734177 495.7109705 138.49789 501.0907173 125.628692 501.0907173C112.759494 501.0907173 100.312236 495.7109705 89.7637131 485.5843882C89.6582278 485.478903 89.6582278 485.478903 89.5527426 485.3734177L53.6877637 449.191983C40.185654 435.6898730000001 32.4852321 419.234177 30.7974684 400.14135C28.2658228 369.339662 37.3375527 340.6476790000001 44.2995781 321.871308C61.3881857 275.774262 86.9156118 233.052743 124.995781 187.272152C171.198312 132.103376 226.78903 88.537975 290.291139 57.841772C314.552743 46.343882 346.936709 32.736287 383.118143 30.415612C385.333333 30.310127 387.654008 30.204641 389.763713 30.204641C414.130802 30.204641 434.594937 38.959916 450.628692 56.364979C450.734177 56.575949 450.945148 56.681435 451.050633 56.892405C456.535865 63.537975 462.864979 69.550633 469.510549 75.985232C474.046414 80.310127 478.687764 84.845992 483.223629 89.592827C493.666667 100.457806 499.151899 113.116034 499.151899 126.090717C499.151899 139.170886 493.561181 151.723629 482.907173 162.272152L424.995781 220.394515L424.995781 220.394515zM462.759494 109.318565C462.654008 109.318565 462.654008 109.21308 462.759494 109.318565C458.64557 104.888186 454.42616 100.879747 449.890295 96.449367C443.033755 89.909283 436.07173 83.052743 429.531646 75.352321C418.877637 63.959916 406.3248950000001 58.580169 389.869198 58.580169C388.28692 58.580169 386.599156 58.580169 385.016878 58.685654C353.687764 60.689873 324.57384 72.92616 302.738397 83.369198C243.033755 112.272152 190.607595 153.305907 147.042194 205.310127C111.07173 248.664557 87.021097 288.748945 71.092827 331.78692C61.2827004 358.052743 57.6962025 378.516878 59.278481 397.820675C60.3333333 410.162447 65.0801688 420.394515 73.835443 429.149789L109.805907 465.1202532C114.974684 469.9725738 120.459916 472.6097046 125.839662 472.6097046C132.485232 472.6097046 137.864979 468.6012658 141.240506 465.2257384C141.345992 465.1202532 141.451477 465.0147679 141.556962 464.9092827C147.991561 458.896624 154.109705 452.672996 160.544304 446.027426C163.814346 442.651899 167.189873 439.276371 170.565401 435.795359L199.362869 406.99789C210.544304 395.816456 210.544304 385.478903 199.362869 374.297468C196.303797 371.238397 193.350211 368.179325 190.291139 365.225738C181.43038 356.154008 172.991561 347.71519 163.814346 339.487342C163.603376 339.2763710000001 163.392405 339.170886 163.28692 338.959916C154.21519 329.888186 155.902954 321.027426 157.801688 315.014768C157.907173 314.698312 158.012658 314.381857 158.118143 314.065401C165.607595 295.921941 176.156118 278.833333 192.189873 258.474684L192.295359 258.369198C221.409283 222.504219 252.105485 194.550633 285.966245 173.137131C290.291139 170.394515 294.721519 168.179325 298.940928 166.06962C302.738397 164.170886 306.3248950000001 162.377637 309.383966 160.478903C309.805907 160.267932 310.227848 159.951477 310.649789 159.740506C314.236287 157.947257 317.611814 157.103376 321.092827 157.103376C329.848101 157.103376 335.333333 162.588608 337.126582 164.381857L373.202532 200.457806C376.7890300000001 204.044304 382.485232 208.369198 389.130802 208.369198C395.670886 208.369198 401.050633 204.255274 404.320675 200.668776C404.42616 200.563291 404.42616 200.563291 404.531646 200.457806L462.654008 142.335443C473.518987 131.575949 473.518987 120.5 462.759494 109.318565L462.759494 109.318565z M300.101266 411.111814C327.738397 406.470464 352.843882 393.3902950000001 372.886076 373.3481010000001C392.92827 353.305907 405.902954 328.200422 410.649789 300.563291C411.810127 293.601266 417.822785 288.748945 424.679325 288.748945C425.523207 288.748945 426.261603 288.85443 427.105485 288.959916C434.911392 290.225738 440.080169 297.609705 438.814346 305.415612C433.118143 338.85443 417.295359 369.339662 393.1392410000001 393.495781C368.983122 417.651899 338.49789 433.474684 305.059072 439.170886C297.253165 440.436709 289.974684 435.267932 288.6033760000001 427.567511C287.2320680000001 419.867089 292.295359 412.377637 300.101266 411.111814L300.101266 411.111814z M529.21519 309.529536C519.827004 364.592827 493.877637 414.698312 454.004219 454.57173C414.130802 494.4451477 364.025316 520.3945148 308.962025 529.7827004C301.261603 531.1540084 293.983122 525.8797468 292.611814 518.1793249C291.345992 510.3734177 296.514768 503.0949367 304.320675 501.7236287C353.476793 493.3902954 398.308017 470.0780591 433.962025 434.529536C469.616034 398.8755270000001 492.822785 354.044304 501.156118 304.888186C502.316456 297.92616 508.329114 293.07384 515.185654 293.07384C516.029536 293.07384 516.767932 293.179325 517.611814 293.28481C525.312236 294.445148 530.586498 301.829114 529.21519 309.529536L529.21519 309.529536z" />
    <glyph glyph-name="user-female-round"
      unicode="&#xE92D;"
      horiz-adv-x="560" d=" M560 280C560 434.63973 434.63973 560 280 560C125.36027 560 0 434.63973 0 280C0 125.36027 125.36027 0 280 0C434.63973 0 560 125.36027 560 280zM30 280C30 418.071187 141.928813 530 280 530C418.071187 530 530 418.071187 530 280C530 141.928813 418.071187 30 280 30C141.928813 30 30 141.928813 30 280z M378.638757 319.7313420000001C358.769286 325.429254 317.592066 353.358381 297.14371 375.045799C303.962432 383.985414 310.2365260000001 393.090965 315.962817 402.1986080000001C319.72831 408.187609 322.991665 413.763656 325.747027 418.791977C326.723722 420.57437 327.570557 422.168386 328.28669 423.55715C328.734677 424.42591 329.049996 425.055199 329.231755 425.4281200000001C330.618234 428.272797 331.941406 430.100098 331.941406 430.100098C331.941406 430.100098 333.475122 433.428738 334.887116 432.985997C353.31601 427.207472 367.712047 417.75376 378.7211490000001 404.962331C395.023785 386.020367 404.185533 359.615566 408.045464 325.296709C410.1575230000001 306.51828 410.551806 290.697743 410.355746 259.376992C410.312904 252.532885 410.300781 250.043319 410.300781 246.660156C410.300781 212.167768 416.597168 185.078125 419.013672 181.632812C408.70638 181.632812 402.678385 180.815063 392.3710940000001 180.815063C383.000446 166.127563 378.229407 160.328125 370.369056 151.632812L447.4375 151.632812C464.877775 151.632812 468.626099 176.310791 452.974976 180.815063C451.442799 182.760602 450.586741 184.110629 449.712965 185.812387C444.02165 196.896742 440.300781 216.552935 440.300781 246.660156C440.300781 249.957113 440.312735 252.412061 440.355159 259.189204C440.558439 291.66341 440.143116 308.328161 437.857494 328.649745C433.383645 368.426985 422.331062 400.281303 401.459257 424.532166C376.0543170000001 454.050058 337.804125 469.6445312 285.623047 469.6445312C212.290213 469.6445312 164.288555 438.99554 138.633074 384.66687C128.600561 363.421776 122.293851 339.252227 118.832361 312.1162980000001C116.23702 291.7704320000001 115.382812 272.132942 115.382812 246.660156C115.382812 216.082583 112.608135 195.855093 108.305226 184.253076C107.856778 183.043917 106.756705 179.63163 105.879515 179.058912C94.1172015 171.379289 98.9822064 151.632812 114.355469 151.632812L191.955237 151.632812C183.777344 158.921875 173.245395 168.045759 168.394531 181.537111C157.707013 181.524694 138.896151 181.537111 138.896151 181.537111C143.067894 196.744266 145.382812 218.033038 145.382812 246.660156C145.382812 270.972128 146.187852 289.47929 148.591223 308.320225C151.682876 332.556873 157.21647 353.763564 165.76048 371.8565680000001C186.477017 415.726409 223.93696 439.6445310000001 285.623047 439.6445310000001C291.489448 439.6445310000001 297.105342 439.426809 302.479149 438.995762C302.180257 438.399368 301.966054 437.971879 301.622999 437.306608C301.020729 436.138654 300.291961 434.766876 299.438014 433.20849C296.96297 428.691728 294.001686 423.631825 290.565589 418.1667260000001C280.72414 402.51394 269.107337 386.853799 255.832503 372.28873C254.294752 370.601519 252.741404 368.937085 251.172611 367.296528C244.859963 360.695116 237.811336 354.2871790000001 230.153671 348.103316C217.777179 338.108815 204.446634 329.182871 191.115414 321.482529C186.454869 318.790518 182.138539 316.450012 178.284671 314.47712C176.954289 313.796064 175.782932 313.212337 174.78533 312.727853C174.216425 312.451566 173.850278 312.278092 173.701586 312.209298C166.183005 308.73078 162.907887 299.81587 166.386405 292.297289C166.925188 291.132745 167.594393 290.070004 168.368631 289.118394C166.82694 256.092426 169.519395 230.264891 176.119127 209.895268C182.207704 191.103289 191.145627 177.71964 203.798314 165.848856C206.18724 163.60756 208.580131 161.522757 211.667995 158.945507C212.212165 158.491322 212.763375 158.033698 213.478199 157.442019C213.502801 157.421655 214.833084 156.321229 215.206845 156.011488C216.547068 154.900824 217.493589 154.107602 218.387277 153.3423C222.281601 150.007431 224.65381 147.594506 226.349823 145.198049L224.105087 149.980158C226.370064 141.529104 226.299313 135.742636 224.687572 131.421626C223.482557 128.191032 221.362311 125.448379 216.992801 121.300293C216.477418 120.811027 212.992043 117.57411 211.935741 116.556947C207.757163 112.479047 192.239483 102.559457 176.299651 93.910187C167.702436 89.245167 159.568014 85.24306 152.900361 82.430614C149.49856 80.995719 146.559146 79.905011 144.214364 79.201431C143.160236 78.885128 142.272649 78.661315 141.586087 78.529988C132.821198 78.433594 126.105469 71.717865 126.105469 63.433594C126.105469 55.149323 132.821198 48.433594 141.105469 48.433594C151.588151 48.433594 168.674948 55.640882 190.607575 67.541961C208.93419 77.486348 226.101134 88.46022 232.360451 94.574486C233.561371 95.733471 236.93912 98.870433 237.647567 99.542981C245.034726 106.555797 249.666337 112.547037 252.795876 120.937199C256.730441 131.485601 256.878356 143.583028 253.082413 157.746404C252.622966 159.460686 251.862937 161.079827 250.837677 162.528514C247.444295 167.323344 243.508765 171.326422 237.900482 176.129025C236.859775 177.020224 235.803435 177.90548 234.349358 179.110496C233.96337 179.430371 232.62264 180.539439 232.607175 180.552239C231.921142 181.120087 231.398737 181.553797 230.89126 181.977356C228.210941 184.214453 226.221397 185.947841 224.324728 187.727301C215.207636 196.28098 209.104513 205.419798 204.658537 219.142001C199.05657 236.43209 196.772472 259.85539 198.515726 291.238576C200.94635 292.560697 203.486527 293.983276 206.120614 295.50477C220.716415 303.935555 235.312891 313.709149 249.001619 324.763332C257.61863 331.721904 265.611329 338.9881000000001 272.854733 346.5628470000001C274.525992 348.310555 276.179804 350.081042 277.816179 351.873315C299.362227 330.013524 335.612065 304.826684 360.842475 294.302549C361.895456 261.529803 359.349304 237.129012 353.806166 219.157412C349.427766 204.962047 343.624114 195.583598 335.067197 186.847529C333.349129 185.093491 331.5389 183.371502 329.14694 181.189932C329.044106 181.096143 324.2046010000001 176.723593 322.79863 175.41885C317.796886 170.777228 314.259291 166.98125 311.108015 162.528514C310.082755 161.079827 309.322725 159.460686 308.863279 157.746404C305.067336 143.583028 305.2152500000001 131.485601 309.149815 120.937199C312.279355 112.547037 316.910966 106.555797 324.2981250000001 99.542981C325.006572 98.870433 328.384321 95.733471 329.200881 94.947167C335.844558 88.46022 353.011501 77.486348 371.338117 67.541961C393.270744 55.640882 410.3575410000001 48.433594 420.840223 48.433594C429.1244940000001 48.433594 435.840223 55.149323 435.840223 63.433594C435.840223 71.717865 429.1244940000001 78.433594 420.840223 78.433594C419.673043 78.661315 418.785456 78.885128 417.731328 79.201431C415.386546 79.905011 412.447131 80.995719 409.045331 82.430614C402.377678 85.24306 394.243256 89.245167 385.6460410000001 93.910187C369.706209 102.559457 354.188529 112.479047 350.54833 116.034889C348.953649 117.57411 345.468274 120.811027 344.952891 121.300293C340.583381 125.448379 338.463135 128.191032 337.25812 131.421626C335.646379 135.742636 335.575628 141.529104 337.840605 149.980158L335.595869 145.198049C337.3307260000001 147.649393 339.589939 150.073616 343.205423 153.428789C344.437528 154.572183 349.129545 158.811477 349.362917 159.024323C352.136187 161.553662 354.326377 163.637092 356.499014 165.855216C368.288141 177.891165 376.630874 191.372659 382.473515 210.315291C389.377684 232.699537 392.22033 261.783646 390.655378 299.95431C390.580089 301.790671 390.1776960000001 303.536353 389.506659 305.137501C389.587416 311.729658 385.281883 317.8263120000001 378.638757 319.7313420000001z M370 0C378.284271 0 385 6.715729 385 15C385 23.284271 378.284271 30 370 30L190 30C181.715729 30 175 23.284271 175 15C175 6.715729 181.715729 0 190 0L370 0z" />
    <glyph glyph-name="user-card"
      unicode="&#xE92E;"
      horiz-adv-x="560" d=" M18.9988887 450L541.001111 450C534.921467 450 530 454.924611 530 461.0020647L530 98.997935C530 105.07435 534.926219 110 541.001111 110L18.9988887 110C25.0785325 110 30 105.075389 30 98.997935L30 461.0020647C30 454.92565 25.073781 450 18.9988887 450zM0 98.997935C0 88.511133 8.50569998 80 18.9988887 80L541.001111 80C551.493985 80 560 88.505032 560 98.997935L560 461.0020647C560 471.4888667 551.4943 480 541.001111 480L18.9988887 480C8.50601466 480 0 471.4949684 0 461.0020647L0 98.997935z M464 190C472.284271 190 479 196.715729 479 205C479 213.284271 472.284271 220 464 220L96 220C87.7157288 220 81 213.284271 81 205C81 196.715729 87.7157288 190 96 190L464 190z M98.0867727 375C90.8531089 375 85 369.140852 85 361.913227L85 298.086773C85 290.853109 90.8591477 285 98.0867727 285L161.913227 285C169.146891 285 175 290.859148 175 298.086773L175 361.913227C175 369.146891 169.140852 375 161.913227 375L98.0867727 375z" />
    <glyph glyph-name="tag"
      unicode="&#xE92F;"
      horiz-adv-x="560" d=" M265 440L265 322.961545C265 314.677274 271.715729 307.961545 280 307.961545C288.284271 307.961545 295 314.677274 295 322.961545L295 440C295 448.284271 288.284271 455 280 455C271.715729 455 265 448.284271 265 440z M117 440L117 322.961545C117 314.677274 123.715729 307.961545 132 307.961545C140.284271 307.961545 147 314.677274 147 322.961545L147 440C147 448.284271 140.284271 455 132 455C123.715729 455 117 448.284271 117 440z M413 440L413 322.961545C413 314.677274 419.715729 307.961545 428 307.961545C436.284271 307.961545 443 314.677274 443 322.961545L443 440C443 448.284271 436.284271 455 428 455C419.715729 455 413 448.284271 413 440z M60 525C51.7157288 525 45 518.2842712 45 510L45 50C45 41.715729 51.7157288 35 60 35L500 35C508.284271 35 515 41.715729 515 50L515 510C515 518.2842712 508.284271 525 500 525L60 525zM190 495L190 65L75 65L75 495L190 495zM338 495L338 65L223 65L223 495L338 495zM485 495L485 65L370 65L370 495L485 495z" />
    <glyph glyph-name="link"
      unicode="&#xE930;"
      horiz-adv-x="560" d=" M295.003752 207L134.996248 207C60.4411104 207 0 267.444426 0 342C0 416.558017 60.4404336 477 134.996248 477L295.003752 477C356.012156 477 407.569617 436.525599 424.2914840000001 380.964844L392.532251 380.964844C377.058451 419.6612780000001 339.222538 447 295.003752 447L134.996248 447C77.0091482 447 30 399.989647 30 342C30 284.0126 77.0100214 237 134.996248 237L295.003752 237C322.557156 237 347.6319460000001 247.614053 366.362579 264.976634C366.362579 264.976634 379.382812 276.875 382.233398 301L412.921875 301C412.921875 278.955078 398.311766 255.094226 398.311766 255.094226C373.548204 225.68578 336.457879 207 295.003752 207zM265.287732 353C223.833604 353 186.743279 334.31422 161.979718 304.905774C161.979718 304.905774 147.369609 281.044922 147.369609 259L178.058085 259C180.908671 283.125 193.928905 295.023366 193.928905 295.023366C212.659538 312.385947 237.734327 323 265.287732 323L425.295235 323C483.281462 323 530.291484 275.9874 530.291484 218C530.291484 160.010353 483.282335 113 425.295235 113L265.287732 113C221.068946 113 183.233032 140.338722 167.759232 179.035156L136 179.035156C152.721867 123.474401 204.279328 83 265.287732 83L425.295235 83C499.85105 83 560.291484 143.441983 560.291484 218C560.291484 292.555574 499.850373 353 425.295235 353L265.287732 353z" />
    <glyph glyph-name="folder-root"
      unicode="&#xE931;"
      horiz-adv-x="560" d=" M0 68.000761C0 52.52915 12.5346187 40 27.9986968 40L532.001303 40C547.467287 40 560 52.539351 560 68.002555L560 431.997445C560 447.466911 547.462701 460 531.997478 460L188.41655 459.867722L134.142136 514.1421356C130.391408 517.8928632 125.30433 520 120 520L27.9933542 520C12.5390997 520 0 507.4598903 0 491.9992391L0 68.000761zM530 70L30 70L30 490L115.99707 490L169.857864 435.857864C173.608592 432.107137 178.69567 430 184 430L530 430L530 70z M282.304752 160.347158C279.627741 152.507339 283.813023 143.981763 291.652842 141.304752C299.492661 138.627741 308.018237 142.813023 310.695248 150.652842L380.695248 355.652842C383.372259 363.492661 379.186977 372.018237 371.347158 374.695248C363.507339 377.372259 354.981763 373.186977 352.304752 365.3471580000001L282.304752 160.347158z M160 189C160 172.4314575050762 173.4314575050762 159 190 159C206.5685424949238 159 220 172.4314575050762 220 189C220 205.5685424949238 206.5685424949238 219 190 219C173.4314575050762 219 160 205.5685424949238 160 189z" />
    <glyph glyph-name="handle"
      unicode="&#xE932;"
      horiz-adv-x="560" d=" M205 60C221.568542 60 235 73.431458 235 90C235 106.568542 221.568542 120 205 120C188.431458 120 175 106.568542 175 90C175 73.431458 188.431458 60 205 60zM205 186.666667C221.568542 186.666667 235 200.098124 235 216.666667C235 233.235209 221.568542 246.666667 205 246.666667C188.431458 246.666667 175 233.235209 175 216.666667C175 200.098124 188.431458 186.666667 205 186.666667zM205 313.3333330000001C221.568542 313.3333330000001 235 326.764791 235 343.3333330000001C235 359.901876 221.568542 373.3333330000001 205 373.3333330000001C188.431458 373.3333330000001 175 359.901876 175 343.3333330000001C175 326.764791 188.431458 313.3333330000001 205 313.3333330000001zM205 440C221.568542 440 235 453.431458 235 470C235 486.5685425 221.568542 500 205 500C188.431458 500 175 486.5685425 175 470C175 453.431458 188.431458 440 205 440zM355 60C371.568542 60 385 73.431458 385 90C385 106.568542 371.568542 120 355 120C338.431458 120 325 106.568542 325 90C325 73.431458 338.431458 60 355 60zM355 186.666667C371.568542 186.666667 385 200.098124 385 216.666667C385 233.235209 371.568542 246.666667 355 246.666667C338.431458 246.666667 325 233.235209 325 216.666667C325 200.098124 338.431458 186.666667 355 186.666667zM355 313.3333330000001C371.568542 313.3333330000001 385 326.764791 385 343.3333330000001C385 359.901876 371.568542 373.3333330000001 355 373.3333330000001C338.431458 373.3333330000001 325 359.901876 325 343.3333330000001C325 326.764791 338.431458 313.3333330000001 355 313.3333330000001zM355 440C371.568542 440 385 453.431458 385 470C385 486.5685425 371.568542 500 355 500C338.431458 500 325 486.5685425 325 470C325 453.431458 338.431458 440 355 440z" />
    </font>
</defs>
</svg>
